<svg xmlns="http://www.w3.org/2000/svg" viewBox="0 0 1022 409.55"><defs><style>.cls-1{fill:#fff;}.cls-2{fill:#fefefe;}.cls-3{fill:#533f32;}.cls-4{fill:#d5b097;}.cls-5{fill:#464443;}.cls-6{fill:#433226;}.cls-7{fill:#896449;}.cls-8{fill:#281b12;}.cls-9{fill:#6b5347;}.cls-10{fill:#423125;}.cls-11{fill:#38281d;}.cls-12{fill:#463529;}.cls-13{fill:#392a20;}.cls-14{fill:#2f1d11;}.cls-15{fill:#463428;}.cls-16{fill:#5a4437;}.cls-17{fill:#3a2b21;}.cls-18{fill:#302117;}.cls-19{fill:#936f56;}.cls-20{fill:#332419;}.cls-21{fill:#33261c;}.cls-22{fill:#cfaa90;}.cls-23{fill:#b79279;}.cls-24{fill:#d3ae95;}.cls-25{fill:#a88369;}.cls-26{fill:#626161;}.cls-27{fill:#59483d;}.cls-28{fill:#c9a389;}.cls-29{fill:#9c765d;}.cls-30{fill:#af8e79;}.cls-31{fill:#c1a18c;}.cls-32{fill:#5a4a40;}.cls-33{fill:#af8f7a;}.cls-34{fill:#d7b197;}.cls-35{fill:#f6dfcf;}.cls-36{fill:#b48f75;}.cls-37{fill:#c8a086;}.cls-38{fill:#f7dfcf;}.cls-39{fill:#bd977d;}.cls-40{fill:#b48e74;}.cls-41{fill:#a88268;}.cls-42{fill:#d0b7a8;}.cls-43{fill:#efd5c6;}.cls-44{fill:#c4a796;}.cls-45{fill:#e7cdbc;}.cls-46{fill:#c39f87;}.cls-47{fill:#bf9c85;}.cls-48{fill:#a28573;}.cls-49{fill:#bb967d;}.cls-50{fill:#bc9c87;}.cls-51{fill:#d6baa9;}.cls-52{fill:#bc9981;}.cls-53{fill:#9c7c66;}.cls-54{fill:#a9846a;}.cls-55{fill:#c8b1a4;}.cls-56{fill:#987a66;}.cls-57{fill:#656361;}.cls-58{fill:#dec4b4;}.cls-59{fill:#c3a795;}.cls-60{fill:#6c6059;}.cls-61{fill:#ebeaea;}.cls-62{fill:#5d5958;}.cls-63{fill:#a7826a;}.cls-64{fill:#78665d;}.cls-65{fill:#b38e73;}.cls-66{fill:#a78268;}.cls-67{fill:#ae8a71;}.cls-68{fill:#554033;}.cls-69{fill:#24150b;}.cls-70{fill:#d0aa8f;}.cls-71{fill:#8e6950;}.cls-72{fill:#4a392d;}.cls-73{fill:#695145;}.cls-74{fill:#5c4639;}.cls-75{fill:#2d1e13;}.cls-76{fill:#4f3b2e;}.cls-77{fill:#ba9478;}.cls-78{fill:#ddb8a0;}.cls-79{fill:#363433;}.cls-80{fill:#574e47;}.cls-81{fill:#e0dede;}.cls-82{fill:#e1c6b6;}.cls-83{fill:#e8e8e7;}.cls-84{fill:#6d6a67;}.cls-85{fill:#ebc7b1;}.cls-86{fill:#dfbaa2;}.cls-87{fill:#e3bea7;}.cls-88{fill:#c1a08b;}.cls-89{fill:#353433;}.cls-90{fill:#454444;}.cls-91{fill:#b69a89;}.cls-92{fill:#8a857c;}.cls-93{fill:#383432;}.cls-94{fill:#e9c5af;}.cls-95{fill:#e8c4ad;}.cls-96{fill:#debaa2;}.cls-97{fill:#edc9b3;}.cls-98{fill:#c49f87;}.cls-99{fill:#837b71;}.cls-100{fill:#a9a79e;}.cls-101{fill:#c5c1b4;}.cls-102{fill:#a69a88;}.cls-103{fill:#d4af95;}.cls-104{fill:#c5a086;}.cls-105{fill:#d0aa90;}.cls-106{fill:#d7d7d7;}.cls-107{fill:#877a68;}.cls-108{fill:#666564;}.cls-109{fill:#deb9a1;}.cls-110{fill:#f3d0ba;}.cls-111{fill:#494949;}.cls-112{fill:#928c7f;}.cls-113{fill:#6e685f;}.cls-114{fill:#d0cfcd;}.cls-115{fill:#dbd9d9;}.cls-116{fill:#5c5b5a;}.cls-117{fill:#8d5f4c;}.cls-118{fill:#bf9482;}.cls-119{fill:#89644a;}.cls-120{fill:#5f5e5e;}.cls-121{fill:#71706f;}.cls-122{fill:#b18a72;}</style></defs><g id="Layer_2" data-name="Layer 2"><g id="Layer_5" data-name="Layer 5"><path class="cls-1" d="M.12,200.3Q.12,102.65,0,5C0,.84.84,0,5,0Q182.5.21,360,0c4.15,0,5,.84,5,5q-.21,196,0,392c0,4.16-.83,5-5,5q-177.51-.21-355,0c-4.15,0-5-.83-5-5Q.26,298.66.12,200.3Zm251.66-142-1.22-.25c-.6-4.34-1-8.72-1.82-13-1.61-8.88-2.83-17.86-7.1-26-1.95-3.74-4-4.26-7.54-1.86-8.27,5.59-17,10.41-26.63,13.33-11.95,3.62-11.94,3.67-12.08-8.38,0-1.16,0-2.33-.1-3.49-.38-6.81-1.2-7.34-7.48-4-6,3.14-11.91,6.56-18.44,8.08-23.86,5.57-47.18,12.15-66.43,28.53-2.31,2-7.77,2.25-8.54,0-3.09-9-5.28-3.05-7.48.07-2.8,4-5,8.41-7.91,12.26-10.55,13.81-15.1,29.53-15.84,46.69-.82,19.27-1.94,38.53-3,57.78-.45,8.37.72,17.11-8.4,22.64-2.81,1.7-4.58,5.87-5.85,9.28-7.47,20-7.7,39.54,5.42,57.68,1.66,2.31,3,4.59,3,7.59.1,31.81,12.95,58.39,33.12,82.19,17.22,20.32,37.77,29.18,64.73,23.61,36-7.43,66.73-23.4,91.44-50.73,4.09-4.52,10.07-8.29,12.59-13,6.78-12.56,16.07-23.25,23.48-35.26a17.81,17.81,0,0,1,11.15-7.8c2.58-.66,7.2-1.29,5-5.55-1.83-3.51-5.47-1.22-7.93.2-2.78,1.61-5.11,4-7.75,5.87-1.78,1.27-2.87,3.8-5.64,3.41-1.13-1.46.05-2.72.18-4,.75-8,7.48-12.71,10.73-19.18,11.17-22.29,17.44-46.41,24.82-70.14C314,163,316.51,151.25,313,139.46c-4.61-15.49-8.4-31.33-15.52-46-1.77-3.64-3-7.58-6-10.66-3.15,2.52-1.63,6.58-4.39,9.17A95.6,95.6,0,0,1,271,65.47c-2.55-6.19-5.78-12.11-8.88-18.06-1.84-3.54-3.76-3.92-5.49.28C255.13,51.29,253.4,54.79,251.78,58.33Z"/><path d="M251.78,58.33c1.62-3.54,3.35-7,4.83-10.64,1.73-4.2,3.65-3.82,5.49-.28,3.1,6,6.33,11.87,8.88,18.06A95.6,95.6,0,0,0,287.14,92c2.76-2.59,1.24-6.65,4.39-9.17,3,3.08,4.19,7,6,10.66,7.12,14.68,10.91,30.52,15.52,46,3.5,11.79,1,23.51-2.71,35.36-7.38,23.73-13.65,47.85-24.82,70.14-3.25,6.47-10,11.15-10.73,19.18-.13,1.31-1.31,2.57-.18,4,2.77.39,3.86-2.14,5.64-3.41,2.64-1.89,5-4.26,7.75-5.87,2.46-1.42,6.1-3.71,7.93-.2,2.22,4.26-2.4,4.89-5,5.55a17.81,17.81,0,0,0-11.15,7.8c-7.41,12-16.7,22.7-23.48,35.26-2.52,4.67-8.5,8.44-12.59,13C219,347.59,188.21,363.56,152.25,371c-27,5.57-47.51-3.29-64.73-23.61-20.17-23.8-33-50.38-33.12-82.19,0-3-1.37-5.28-3-7.59C38.25,239.46,38.48,220,46,199.92c1.27-3.41,3-7.58,5.85-9.28,9.12-5.53,8-14.27,8.4-22.64,1-19.25,2.15-38.51,3-57.78C63.91,93.06,68.46,77.34,79,63.53c2.94-3.85,5.11-8.29,7.91-12.26,2.2-3.12,4.39-9,7.48-.07.77,2.23,6.23,1.94,8.54,0,19.25-16.38,42.57-23,66.43-28.53,6.53-1.52,12.48-4.94,18.44-8.08,6.28-3.31,7.1-2.78,7.48,4,.07,1.16.09,2.33.1,3.49.14,12.05.13,12,12.08,8.38,9.65-2.92,18.36-7.74,26.63-13.33,3.56-2.4,5.59-1.88,7.54,1.86,4.27,8.19,5.49,17.17,7.1,26.05.78,4.31,1.22,8.69,1.82,13ZM117.66,114.05c-19-.1-19.59-.55-27.24,9a93.2,93.2,0,0,0-20,47.45c-1.15,9.53,3.28,12.66,12.17,8.61,6.46-2.94,12.56-2.79,18.87-.54,5,1.8,10.19,3.43,14.82,6,14.82,8.2,30.79,12.76,47.27,15.76,7.35,1.33,14.08,2.29,22.34.62,16.66-3.35,34.41-2.19,50.44,5.24,5.19,2.41,13.32,5.3,9.2,14.68-.44,1,.58,1.63,1.37,2.09,5.18,3,8.83,7.44,11.89,12.45,1.18,1.94,3,3.18,4,.42,2.35-6.73,7.6-12.77,8.24-19.42,1.3-13.34,3.14-26.84,1.64-40.33-1.16-10.38-3.53-20.63-13.16-26.49-16.32-9.93-33.11-18.57-53.11-18.66s-39.46-3.09-57.54-11.61C138.65,114.56,128.33,114.13,117.66,114.05ZM239.75,298.73c-7.06,3-14.06,5-21.6,4.78-19.71-.65-35-9.69-46.79-25-11-14.4-13-30.91-10.22-48.34,1.39-8.79-.82-13.44-7.69-16.57-4.11-1.88-13.56.59-13.29,3.86.58,7-4.44,11.3-6.73,16.75-10.72,25.52-36.53,39-62.57,34.19-4.29-.78-9.43-6.91-12.72-1.53-2,3.32.39,9.4.92,14.24a20.78,20.78,0,0,0,1.09,3.29c7.75,25.78,21.69,48,39.14,68.18,12.15,14.09,26.79,19.27,44.85,13.57,24.5-7.74,47.48-18.41,67.55-34.79C222.86,322.2,232.77,312,239.75,298.73Zm-74.12-54.24c.12,28.09,23.44,52.72,50.65,54.1a28.24,28.24,0,0,0,19-5.59c15.86-12.09,21.56-28.59,19.42-47.93-1.12-10.13-7.78-16.76-16.59-20.9a139.63,139.63,0,0,0-36.39-11.47c-5-.83-10.07-2.21-15.17-.89-1.73.45-4.74.46-3.2,3.84.91,2,3.43,3.95.75,6.08a7.37,7.37,0,0,1-9.13.42c-3.79-3-4.07,0-6,2-3.27,3.37,2.22,6.87-.4,9.33C164.91,237,166.08,241.17,165.63,244.49ZM54.07,208.2c-4.57-3.88-4.55-3.87-6.33,1.14a41.58,41.58,0,0,0-2.68,15c.68,24.46,8.58,35.73,28.39,39,30.78,5.05,56.1-16.65,58.58-47.83.14-1.75.53-3.73-.53-4.8-6.87,3.64-8-3.71-11.46-5.77-4.66-2.8-.13-4.53,1.92-6.19-9.44-8.12-41.46-15.39-52.45-12.17-3.3,1-4.92,2.82-5.43,6.31a116.29,116.29,0,0,1-3.29,16.37c-1.37,4.65-1,9.93-5,15.41-3-12.72,6.55-22.93,3-34.48C51.43,194.73,50,200.55,54.07,208.2Zm120.48.68c-11.78-2.81-22.77-5.45-33.78-8-1.93-.46-4.58-2.09-5.76,0-1.37,2.39,1,4.86,2.27,6.86,1.67,2.66,4.25.62,6.23-.08,6.54-2.3,13-1.56,17.36,3.42C166.65,217.65,170.11,214.68,174.55,208.88Z"/><path class="cls-1" d="M117.66,114.05c10.67.08,21,.51,31.17,5.31,18.08,8.52,37.68,11.52,57.54,11.61s36.79,8.73,53.11,18.66c9.63,5.86,12,16.11,13.16,26.49,1.5,13.49-.34,27-1.64,40.33-.64,6.65-5.89,12.69-8.24,19.42-1,2.76-2.78,1.52-4-.42-3.06-5-6.71-9.46-11.89-12.45-.79-.46-1.81-1.08-1.37-2.09,4.12-9.38-4-12.27-9.2-14.68-16-7.43-33.78-8.59-50.44-5.24-8.26,1.67-15,.71-22.34-.62-16.48-3-32.45-7.56-47.27-15.76-4.63-2.56-9.8-4.19-14.82-6-6.31-2.25-12.41-2.4-18.87.54-8.89,4.05-13.32.92-12.17-8.61a93.2,93.2,0,0,1,20-47.45C98.07,113.5,98.63,114,117.66,114.05Z"/><path class="cls-1" d="M239.75,298.73c-7,13.23-16.89,23.47-28.06,32.59-20.07,16.38-43.05,27.05-67.55,34.79-18.06,5.7-32.7.52-44.85-13.57-17.45-20.21-31.39-42.4-39.14-68.18a20.78,20.78,0,0,1-1.09-3.29c-.53-4.84-3-10.92-.92-14.24,3.29-5.38,8.43.75,12.72,1.53,26,4.77,51.85-8.67,62.57-34.19,2.29-5.45,7.31-9.8,6.73-16.75-.27-3.27,9.18-5.74,13.29-3.86,6.87,3.13,9.08,7.78,7.69,16.57-2.74,17.43-.82,33.94,10.22,48.34,11.77,15.35,27.08,24.39,46.79,25C225.69,303.75,232.69,301.74,239.75,298.73ZM155,280.34c-4.72,11.33-11.94,14.52-21.87,11.83-7.48-2-13.28-5.5-13.66-16-2.68,9.42,0,14.81,6.7,18.54,7.88,4.44,16.16,6.55,24.34,1.51C155.22,293.29,157.3,288.43,155,280.34Zm8.91,42.86.51-2.47-58.54-11.59-.39,2C124.25,318.58,143.9,321.73,163.89,323.2Z"/><path class="cls-1" d="M165.63,244.49c.45-3.32-.72-7.52,3-11,2.62-2.46-2.87-6,.4-9.33,1.91-2,2.19-5,6-2a7.37,7.37,0,0,0,9.13-.42c2.68-2.13.16-4.09-.75-6.08-1.54-3.38,1.47-3.39,3.2-3.84,5.1-1.32,10.2.06,15.17.89a139.63,139.63,0,0,1,36.39,11.47c8.81,4.14,15.47,10.77,16.59,20.9,2.14,19.34-3.56,35.84-19.42,47.93a28.24,28.24,0,0,1-19,5.59C189.07,297.21,165.75,272.58,165.63,244.49Zm68.89,8.29c-6-10.59-21.18-17.64-36.94-17.24-8.87.22-17,2.46-23.15,10.9,3.92,0,5.28-3.72,8.63-2.79.59,3.11-.87,6.77,1.76,9.54,1.51-1,.66-3.43,3-3.82,2.49,6.23,6.65,10.94,13.74,10.87s11.28-3.91,13.49-10.87c1.7-5.33,2.67,1.55,4.86.57-1.11-6.92,2-6.24,6.38-3.11Z"/><path class="cls-1" d="M54.07,208.2c-4.12-7.65-2.64-13.47,4.69-18,3.58,11.55-5.95,21.76-3,34.48,4-5.48,3.63-10.76,5-15.41a116.29,116.29,0,0,0,3.29-16.37c.51-3.49,2.13-5.34,5.43-6.31,11-3.22,43,4.05,52.45,12.17-2,1.66-6.58,3.39-1.92,6.19,3.41,2.06,4.59,9.41,11.46,5.77,1.06,1.07.67,3.05.53,4.8-2.48,31.18-27.8,52.88-58.58,47.83-19.81-3.25-27.71-14.52-28.39-39a41.58,41.58,0,0,1,2.68-15C49.52,204.33,49.5,204.32,54.07,208.2Zm32.27,23.43c1.72-1.28,1.36-5.81,5.12-1.78,6.7,7.19,14.3,6.48,20.84-.8.79-.88,1.43-4.93,3.39-1.24,2.52,4.75,2.53-2.16,5-.88,1.34.68.13-2.33-.56-3.36-7.28-10.83-30.61-17.89-42.68-12.9-2.59,1.07-5.63,2.06-5.48,6.62,3-1.44,5.31-2.77,7.79-3.73,3.8-1.48,6.45-1.59,4.69,4C83.06,222.12,83.49,226.73,86.34,231.63Z"/><path class="cls-1" d="M174.55,208.88c-4.44,5.8-7.9,8.77-13.68,2.15-4.36-5-10.82-5.72-17.36-3.42-2,.7-4.56,2.74-6.23.08-1.26-2-3.64-4.47-2.27-6.86,1.18-2.06,3.83-.43,5.76,0C151.78,203.43,162.77,206.07,174.55,208.88Z"/><path d="M155,280.34c2.32,8.09.24,13-4.49,15.86-8.18,5-16.46,2.93-24.34-1.51-6.65-3.73-9.38-9.12-6.7-18.54.38,10.52,6.18,14,13.66,16C143,294.86,150.26,291.67,155,280.34Z"/><path d="M163.89,323.2c-20-1.47-39.64-4.62-58.42-12.08l.39-2,58.54,11.59Z"/><path d="M234.52,252.78l-8.25-5.95c-4.34-3.13-7.49-3.81-6.38,3.11-2.19,1-3.16-5.9-4.86-.57-2.21,7-6.54,10.8-13.49,10.87s-11.25-4.64-13.74-10.87c-2.32.39-1.47,2.81-3,3.82-2.63-2.77-1.17-6.43-1.76-9.54-3.35-.93-4.71,2.83-8.63,2.79,6.12-8.44,14.28-10.68,23.15-10.9C213.34,235.14,228.51,242.19,234.52,252.78Zm-38.2-14.22c-1.65.47-4.54-.62-4.36,2.57.11,2,2,3,3.95,3.07,2.38.07,4-1.32,4.06-3.67S198,238.62,196.32,238.56Z"/><path d="M86.34,231.63c-2.85-4.9-3.28-9.51-1.85-14,1.76-5.61-.89-5.5-4.69-4-2.48,1-4.82,2.29-7.79,3.73-.15-4.56,2.89-5.55,5.48-6.62,12.07-5,35.4,2.07,42.68,12.9.69,1,1.9,4,.56,3.36-2.51-1.28-2.52,5.63-5,.88-2-3.69-2.6.36-3.39,1.24-6.54,7.28-14.14,8-20.84.8C87.7,225.82,88.06,230.35,86.34,231.63ZM96.6,218.44c1.45-.38,3.33-1,3.19-2.85-.23-2.89-3.1-2.11-4.91-2.64-1.38-.41-3.11-.14-2.9,1.76C92.25,217.08,94.2,218,96.6,218.44Z"/><path class="cls-1" d="M196.32,238.56c1.63.06,3.69-.33,3.65,2s-1.68,3.74-4.06,3.67c-1.93-.06-3.84-1.1-3.95-3.07C191.78,237.94,194.67,239,196.32,238.56Z"/><path class="cls-1" d="M96.6,218.44c-2.4-.42-4.35-1.36-4.62-3.73-.21-1.9,1.52-2.17,2.9-1.76,1.81.53,4.68-.25,4.91,2.64C99.93,217.42,98.05,218.06,96.6,218.44Z"/><path class="cls-2" d="M327.15,205.46c0-65.09.07-130.18-.15-195.27,0-4.95,1.22-5.62,5.8-5.62q176.79.22,353.57,0c4.94,0,5.61,1.21,5.61,5.81q-.22,195.27,0,390.55c0,4.95-1.21,5.62-5.8,5.61q-176.78-.22-353.57,0c-4.94,0-5.62-1.22-5.61-5.81Q327.29,303.1,327.15,205.46Zm254.2,109.45c5.44,3.62,10.11,2.57,15.08-1.5,7.88-6.46,13-14.89,17.72-23.57,4-7.35,9.4-14.29,9.06-23.39l.09-4.67c.38-9-3.66-11.79-12.54-8.82,2.78-6.84,5.82-13.58,8.3-20.53,6.3-17.73,11.7-35.75,17.32-53.71a88.77,88.77,0,0,0,4-24.8c.22-9-3.85-16.9-6-25.25a171.09,171.09,0,0,0-14.08-36.85c-.57-1.09-.67-4.69-3.54-3.58-2.24.87-3.58,3.07-2.3,5.56.7,1.37.64,2.14-.55,2.75-1.79.92-1.91-.88-2.74-1.74-9.85-10.2-13.24-24-20.12-35.9-2-3.48-1.91-9.75-6.23-9.86-3.42-.09-3.87,6-5.62,9.33-.68,1.3-.78,3.74-2.92,3.23s-.88-2.62-1-4.09a98.35,98.35,0,0,0-7.7-34.19c-2.3-5.34-4.64-4.16-8.2-1.82-10.07,6.63-20.62,12.2-32.53,14.93-4.2,1-6.12.53-5.6-4.35a95.68,95.68,0,0,0,0-10.44c0-5-2.09-6.18-6.47-3.69-6.45,3.66-13,7.43-20.23,9-23.69,5.18-46.37,12.27-65.7,27.84-2.31,1.86-7.61,5.29-9.93-1.94-1.59-4.93-3.93-1.22-5.07.48-4.88,7.3-9.52,14.75-14.16,22.2-3.86,6.19-7.57,12.35-8.69,19.9-3.69,24.85-4.53,49.88-5.4,74.92-.31,9.22,1.11,19.21-9,25-.9.52-1.36,1.83-2,2.79-11.5,17.29-11.05,44.81,1.4,63.11,2.38,3.51,3.66,6.85,3.13,10.95l.09,2.06q.73,6.63,1.46,13.27c-.63,1.29-.6,2.4.84,3.12l.5,3.86c-.38.9,0,1.44.82,1.78a58.65,58.65,0,0,0,3.6,13.76c5.87,15.52,15.33,28.85,25.79,41.32C425,366.6,440,379,461.65,377.71c23.68-1.37,45.9-8.36,66.65-19.52,18.52-10,34-23.88,47.25-40.21C577,316.19,578.58,314.34,581.35,314.91Z"/><path class="cls-3" d="M623.3,261.78l-.09,4.67c-7,1.06-13.81,3-18.12,9-6.33,8.78-12.16,17.93-18,27-2.47,3.84-5.44,7.53-5.7,12.43-2.77-.57-4.34,1.28-5.8,3.07-13.27,16.33-28.73,30.24-47.25,40.21-20.75,11.16-43,18.15-66.65,19.52C440,379,425,366.6,412.17,351.34c-10.46-12.47-19.92-25.8-25.79-41.32a58.65,58.65,0,0,1-3.6-13.76c-.27-.59-.54-1.19-.82-1.78-.16-1.29-.33-2.57-.5-3.86.35-1.21.37-2.33-.84-3.12q-.74-6.63-1.46-13.27c1-.73.91-1.41-.09-2.06.53-4.1-.75-7.44-3.13-10.95-12.45-18.3-12.9-45.82-1.4-63.11.64-1,1.1-2.27,2-2.79,10.16-5.76,8.74-15.75,9-25,.87-25,1.71-50.07,5.4-74.92,1.12-7.55,4.83-13.71,8.69-19.9,4.64-7.45,9.28-14.9,14.16-22.2,1.14-1.7,3.48-5.41,5.07-.48,2.32,7.23,7.62,3.8,9.93,1.94,19.33-15.57,42-22.66,65.7-27.84,7.18-1.56,13.78-5.33,20.23-9,4.38-2.49,6.44-1.29,6.47,3.69a95.68,95.68,0,0,1,0,10.44c-.52,4.88,1.4,5.31,5.6,4.35,11.91-2.73,22.46-8.3,32.53-14.93,3.56-2.34,5.9-3.52,8.2,1.82a98.35,98.35,0,0,1,7.7,34.19c.08,1.47-1.28,3.56,1,4.09s2.24-1.93,2.92-3.23c1.75-3.35,2.2-9.42,5.62-9.33,4.32.11,4.2,6.38,6.23,9.86,6.88,11.87,10.27,25.7,20.12,35.9.83.86,1,2.66,2.74,1.74,1.19-.61,1.25-1.38.55-2.75-1.28-2.49.06-4.69,2.3-5.56,2.87-1.11,3,2.49,3.54,3.58a171.09,171.09,0,0,1,14.08,36.85c2.2,8.35,6.27,16.21,6,25.25a88.77,88.77,0,0,1-4,24.8c-5.62,18-11,36-17.32,53.71-2.48,6.95-5.52,13.69-8.3,20.53-8.56.07-8,7.85-10.18,12.86-.88,2-3.05,6-.59,7.53,2.78,1.7,4.54-2.27,6.44-4C611.24,264.84,615.8,260.08,623.3,261.78Zm-177.8-11.6a5.75,5.75,0,0,0,2.68-5.54c.73-1.57,2.81-2.25,2.81-4.3,13.07-19.51,6.66-34.87-10.84-42.59-3.68-1.63-7.52-1.86-11.22-3.09-9.5-3.15-19.47-4.13-29.47-4.23-5.89-.07-10,1.85-10.83,8.83-1,8.26-3,16.4-4.58,24.58-.3,1.51-.37,3.3-3.18,3.49-1.48-11.18,6.81-21.33,3.79-32.78a9.6,9.6,0,0,0-5.76,5.34c-5.25,11.43-9.71,23-7.89,36.13,1.2,8.67,3.11,17.38,9.29,23.44,14.67,14.39,47.91,11.24,61-5.06C442.71,253,444.1,251.59,445.5,250.18ZM508,286.57c6,8.76,15.41,12.08,24.69,15.25,11.41,3.91,21.95,1,31.1-6.5,10.87-8.91,15.2-21.21,17.14-34.7,2-14.15-4.22-25.44-17-31.76-13-6.4-26.77-9.87-40.92-12s-24.17,1.66-28.2,11.71c-5.23,13.08-5.68,26.56.28,39.77A44.88,44.88,0,0,0,508,286.57ZM440.5,118.16c-10.19-2.29-19.25,1-25.92,10.24C403,144.42,397.28,163,392,181.7c-.53,1.87-.81,4.05,2.15,3.83,4.8-.36,9.81,1.2,14.35-1.43,5.91-3.42,12.14-3.06,18.16-.95a188,188,0,0,1,21.17,8.78c10.46,5.18,21.23,9.23,32.74,11.06,10.89,1.73,20.88,5.28,33.09,2.33,14.75-3.56,30.88-1.33,45.76,4.38,8.71,3.33,11.66,7.16,11.69,15.78a2.34,2.34,0,0,0,1.42,2.1c5.91,3.7,9.44,9.32,12.43,15.4,1.07,2.16,4,4.86,4.71,1.67,1.84-8.76,9.48-15.61,7.81-25.5-.63-3.78.22-7.86.64-11.77,1.37-12.48,3-25-1.56-37.15-2.36-6.25-4.25-13.08-10.58-17a121.67,121.67,0,0,0-65.77-18.86c-14.07,0-27.65-3.42-40.5-8.74C467.32,120.49,454.91,116.83,440.5,118.16Zm15.39,255.15c11.08.34,20.72-4.62,30.61-8.28,14-5.2,27.09-12.39,39.87-20.3,16.1-10,28.14-23.68,39.31-38.47.73-1,1.31-2.09.67-3.21-.92-1.6-2.38-1.11-3.61-.42-1.57.87-3.26,1.47-4.84,2.37-5.68,3.26-12.08,5.24-18.59,3.77-37-8.31-59.65-37-52.19-75.58,1.48-7.6-3.25-14.9-10.11-16.16s-12.72,3.62-14.6,11.38c-3.62,15-11.48,27.65-24.49,35.69-16.5,10.2-34.27,14.56-52.82,4.35-2.76-1.52-4-.53-3.58,2.4,2.09,15.33,4.77,30.53,11.81,44.51,7.94,15.78,18.39,29.89,30.23,42.85A45.52,45.52,0,0,0,455.89,373.31ZM501.52,213.5c-13.45-3.16-25.71-6.07-38-8.9-1.46-.34-3.38-1.06-3.82,1.4-.65,3.52,4.76,8.29,8,6.87,8.39-3.65,15.37-1.45,21.15,5,2.6,2.9,4.45,3.43,7.08.28C497.28,216.62,499.07,215.53,501.52,213.5Z"/><path class="cls-4" d="M581.35,314.91c.26-4.9,3.23-8.59,5.7-12.43,5.88-9.1,11.71-18.25,18-27,4.31-6,11.11-7.94,18.12-9,.34,9.1-5,16-9.06,23.39-4.74,8.68-9.84,17.11-17.72,23.57C591.46,317.48,586.79,318.53,581.35,314.91Z"/><path class="cls-4" d="M623.3,261.78c-7.5-1.7-12.06,3.06-16.87,7.53-1.9,1.77-3.66,5.74-6.44,4-2.46-1.49-.29-5.54.59-7.53,2.19-5,1.62-12.79,10.18-12.86C619.64,250,623.68,252.82,623.3,261.78Z"/><path class="cls-4" d="M380.62,287.5c1.21.79,1.19,1.91.84,3.12C380,289.9,380,288.79,380.62,287.5Z"/><path class="cls-4" d="M379.07,272.17c1,.65,1.14,1.33.09,2.06Z"/><path class="cls-4" d="M382,294.48c.28.59.55,1.19.82,1.78C382,295.92,381.58,295.38,382,294.48Z"/><path class="cls-4" d="M440.5,118.16c14.41-1.33,26.82,2.33,39.21,7.47,12.85,5.32,26.43,8.78,40.5,8.74A121.67,121.67,0,0,1,586,153.23c6.33,3.92,8.22,10.75,10.58,17,4.57,12.11,2.93,24.67,1.56,37.15-.42,3.91-1.27,8-.64,11.77,1.67,9.89-6,16.74-7.81,25.5-.67,3.19-3.64.49-4.71-1.67-3-6.08-6.52-11.7-12.43-15.4a2.34,2.34,0,0,1-1.42-2.1c0-8.62-3-12.45-11.69-15.78-14.88-5.71-31-7.94-45.76-4.38-12.21,3-22.2-.6-33.09-2.33-11.51-1.83-22.28-5.88-32.74-11.06a188,188,0,0,0-21.17-8.78c-6-2.11-12.25-2.47-18.16.95-4.54,2.63-9.55,1.07-14.35,1.43-3,.22-2.68-2-2.15-3.83,5.28-18.72,11-37.28,22.58-53.3C421.25,119.19,430.31,115.87,440.5,118.16Z"/><path class="cls-4" d="M455.89,373.31a45.52,45.52,0,0,1-32.33-15.1c-11.84-13-22.29-27.07-30.23-42.85-7-14-9.72-29.18-11.81-44.51-.4-2.93.82-3.92,3.58-2.4,18.55,10.21,36.32,5.85,52.82-4.35,13-8,20.87-20.71,24.49-35.69,1.88-7.76,7.81-12.61,14.6-11.38s11.59,8.56,10.11,16.16c-7.46,38.54,15.22,67.27,52.19,75.58,6.51,1.47,12.91-.51,18.59-3.77,1.58-.9,3.27-1.5,4.84-2.37,1.23-.69,2.69-1.18,3.61.42.64,1.12.06,2.24-.67,3.21-11.17,14.79-23.21,28.51-39.31,38.47-12.78,7.91-25.83,15.1-39.87,20.3C476.61,368.69,467,373.65,455.89,373.31ZM444.07,287c1.55,10.37,11.87,16.77,24.26,16.22,4.72-.21,7.86-2.45,10.16-6.15.86-1.37,2.88-3.27.57-4.76-1.53-1-3,.51-4,1.9-3.48,4.94-8.54,5.25-13.63,4.08C454.46,296.65,447.55,294.54,444.07,287Zm44.52,39.13-51.82-10.5-.39,2C453.4,322.46,470.3,327.88,488.59,326.1Zm-56.23-10.42,1.09-.51c-.34-.21-.7-.6-1-.57a3.55,3.55,0,0,0-1.21.64Z"/><path class="cls-4" d="M495.09,268.35c-6-13.21-5.51-26.69-.28-39.77,4-10.05,13.94-13.85,28.2-11.71s27.93,5.59,40.92,12c12.81,6.32,19.06,17.61,17,31.76-1.94,13.49-6.27,25.79-17.14,34.7-9.15,7.51-19.69,10.41-31.1,6.5-9.28-3.17-18.73-6.49-24.69-15.25,2.48-.51,4.4,1.12,6.59,1.72,10.64,2.93,23.76,1.06,27.83-12,1.83-5.88,5.55-9,11.26-10.93,3.1-1.06,8.4-2.64,4.53-8.29-.27-7.42-6.55-9-11.56-11.36-13-6.13-26.35-8.2-39.92-.73,2.17,3.24,4.34,3.52,7,1.15,1.72-1.52,3.62-2.92,6.12-2.88,1.81,0,3.82-.84,5.35.52,1,.93.24,2.2-.47,3.07-1.44,1.75-3.12,2.65-5.44,1.36-5.05-2.8-5.73,1.27-5.69,4.37.11,7.45,9.17,13.59,16.44,11.85,7-1.69,10.17-6.39,10.72-14.64l4.92,8c-.34,5.41-3.06,12.38-7.54,11.22-6.73-1.74-13.6.87-20-2.38C510.32,262.62,502.55,264.38,495.09,268.35Zm13.41-6.18c-.4-4.56-.64-7.51-.93-10.44-.08-.84.26-1.95-1-2.25a2.29,2.29,0,0,0-2.32.94C498.7,256.15,504.73,257.92,508.5,262.17Z"/><path class="cls-4" d="M448.18,244.64a5.75,5.75,0,0,1-2.68,5.54c.21-3.41-1.62-4.52-4.72-4.19a29.89,29.89,0,0,1-12.95-1.53c-6.52-2.26-11.55-.26-16.44,3.83-4.1,3.44-7.83,7-4.34,12.73,3.39,5.59,8.12,2.7,12.78,1.82,7.76-1.46,13.65-7.39,21.48-8.44-13.1,16.3-46.34,19.45-61,5.06-6.18-6.06-8.09-14.77-9.29-23.44-1.82-13.1,2.64-24.7,7.89-36.13a9.6,9.6,0,0,1,5.76-5.34c3,11.45-5.27,21.6-3.79,32.78,2.81-.19,2.88-2,3.18-3.49,1.6-8.18,3.59-16.32,4.58-24.58.84-7,4.94-8.9,10.83-8.83,10,.1,20,1.08,29.47,4.23,3.7,1.23,7.54,1.46,11.22,3.09,17.5,7.72,23.91,23.08,10.84,42.59-6-6.85-7.27-6.44-12.51,4.3ZM446.86,232l.45.25-.53-.17c-7.38-14.28-20.9-17-35-18.24-5.3-.47-10.34.94-13.35,5.9,2.41,0,4.41-.85,6.47-1.55,4.18-1.42,7.18-2.16,5,4.46-1.55,4.75-1.13,10,3.14,14.08a21.21,21.21,0,0,1,.73-14.26c1.15-2.69,2.63-5.08,5.93-5,1.79,0,3.77.12,5.06,1.8a1.84,1.84,0,0,1-.27,2.5c-1.49,1.66-3.25,1.63-5,.43s-3.4-1.83-3.9,1.15c-1,5.69-.06,10.83,5.24,14s10.31,2.22,14.63-1.85c2-1.85,3.34-4.36,5.15-6.82C442.37,230.52,444,232.47,446.86,232Z"/><path class="cls-2" d="M558.24,257c3.87,5.65-1.43,7.23-4.53,8.29-5.71,2-9.43,5.05-11.26,10.93-4.07,13.09-17.19,15-27.83,12-2.19-.6-4.11-2.23-6.59-1.72a44.88,44.88,0,0,1-12.94-18.22c7.46-4,15.23-5.73,23.11-1.72,6.39,3.25,13.26.64,20,2.38,4.48,1.16,7.2-5.81,7.54-11.22.27-2.82.53-5.62.8-8.48C551.82,250.54,554.41,254.69,558.24,257Z"/><path class="cls-2" d="M441.31,254.4c-7.83,1-13.72,7-21.48,8.44-4.66.88-9.39,3.77-12.78-1.82-3.49-5.75.24-9.29,4.34-12.73,4.89-4.09,9.92-6.09,16.44-3.83A29.89,29.89,0,0,0,440.78,246c3.1-.33,4.93.78,4.72,4.19C444.1,251.59,442.71,253,441.31,254.4Z"/><path class="cls-4" d="M501.52,213.5c-2.45,2-4.24,3.12-5.52,4.66-2.63,3.15-4.48,2.62-7.08-.28-5.78-6.46-12.76-8.66-21.15-5-3.29,1.42-8.7-3.35-8-6.87.44-2.46,2.36-1.74,3.82-1.4C475.81,207.43,488.07,210.34,501.52,213.5Z"/><path class="cls-2" d="M448.18,244.64h-9.7c5.24-10.74,6.5-11.15,12.51-4.3C451,242.39,448.91,243.07,448.18,244.64Z"/><path class="cls-3" d="M444.07,287c3.48,7.57,10.39,9.68,17.37,11.29,5.09,1.17,10.15.86,13.63-4.08,1-1.39,2.46-2.89,4-1.9,2.31,1.49.29,3.39-.57,4.76-2.3,3.7-5.44,5.94-10.16,6.15C455.94,303.74,445.62,297.34,444.07,287Z"/><path class="cls-3" d="M488.59,326.1c-18.29,1.78-35.19-3.64-52.21-8.48l.39-2Z"/><path class="cls-3" d="M432.36,315.68l-1.14-.44a3.55,3.55,0,0,1,1.21-.64c.32,0,.68.36,1,.57Z"/><path class="cls-3" d="M558.24,257c-3.83-2.35-6.42-6.5-11.71-7.73-.27,2.86-.53,5.66-.8,8.48l-4.92-8c-.55,8.25-3.68,12.95-10.72,14.64-7.27,1.74-16.33-4.4-16.44-11.85,0-3.1.64-7.17,5.69-4.37,2.32,1.29,4,.39,5.44-1.36.71-.87,1.52-2.14.47-3.07-1.53-1.36-3.54-.49-5.35-.52-2.5,0-4.4,1.36-6.12,2.88-2.68,2.37-4.85,2.09-7-1.15,13.57-7.47,26.87-5.4,39.92.73C551.69,248,558,249.62,558.24,257Z"/><path class="cls-2" d="M508.5,262.17c-3.77-4.25-9.8-6-4.25-11.75a2.29,2.29,0,0,1,2.32-.94c1.26.3.92,1.41,1,2.25C507.86,254.66,508.1,257.61,508.5,262.17Z"/><path class="cls-3" d="M446.86,232c-2.82.45-4.49-1.5-6.16-3.31-1.81,2.46-3.17,5-5.15,6.82-4.32,4.07-9.42,5-14.63,1.85s-6.2-8.34-5.24-14c.5-3,2.05-2.45,3.9-1.15s3.49,1.23,5-.43a1.84,1.84,0,0,0,.27-2.5c-1.29-1.68-3.27-1.77-5.06-1.8-3.3-.06-4.78,2.33-5.93,5a21.21,21.21,0,0,0-.73,14.26c-4.27-4.13-4.69-9.33-3.14-14.08,2.15-6.62-.85-5.88-5-4.46-2.06.7-4.06,1.58-6.47,1.55,3-5,8-6.37,13.35-5.9,14.06,1.25,27.58,4,35,18.24Z"/><path class="cls-3" d="M446.78,232.1l.53.17-.45-.25Z"/><path class="cls-2" d="M657.12,208.75q0-98-.12-195.9c0-4.44,1.1-5.31,5.37-5.3q177.07.19,354.14,0c4,0,5.5.49,5.49,5.18q-.25,195.9,0,391.8c0,4.25-1,5-5,5q-177.44-.19-354.85,0c-4.87,0-5.08-1.73-5.07-5.59Q657.2,306.36,657.12,208.75Z"/><path class="cls-5" d="M703.27,257.26c-11-19.18-6.18-49.43,10.59-64,3.09-2.67,1.11-6.19,2.87-8.85,1.35,3.73,4,1.83,6.34,1.47a22.66,22.66,0,0,0,14.55.35c2.07-.7,4.13-1.43,6.36-.73,44.81,18.43,92.08,27.29,139.42,35.86,4.33-.19,7.92,1.94,11.61,3.76a11.62,11.62,0,0,0,6,2.44,33.83,33.83,0,0,1,6.41,4.19,35.39,35.39,0,0,1,10.1,13.83c5.32,23.12-1.18,42.47-18.53,58.36a72.85,72.85,0,0,1-11.47,6.51c-5.44,2.34-11.2,1.67-16.87,1.8a23.42,23.42,0,0,1-7.7-1.27c-22.82-7.28-38.85-21.54-45.91-45-2.33-7.84-1.92-15.83-1.39-23.82.83-4.42,3.11-8.8,1-13.38-3.38-7.46-10.35-8.76-19.06-3.72-3,3.35-2.28,8-4,11.76-3.66,11.46-10.45,20.82-19.26,28.83-11.51,8.34-24.21,13.13-38.58,12.84a12.27,12.27,0,0,1-2.08-.38c-5-1.27-10.24-1.35-14.83-4-1.18-.58-2.33-1.21-3.48-1.84-3.09-1.32-4.94-3.92-6.74-6.57l-1.33-1.65c-1.48-3,.31-3.16,2.27-2.28,2.21,1,3.94,3.06,6.67,2.93a31.41,31.41,0,0,1,4.75,1.46,49.6,49.6,0,0,0,25.75,2.63c14.61-2.46,25.6-10.2,33.17-22.9.53-.86,1.1-1.68,1.66-2.52a43.59,43.59,0,0,0,5.89-24.23c-2-8.47-7-14.12-15.3-16.73A37.23,37.23,0,0,0,760.44,199c-9-1.72-18-3.95-27.27-3.86-1,0-2.1-.06-3.14-.08-3.33-.33-6.43.68-9.49,1.8a16.39,16.39,0,0,0-4.28,1.79c-3.2,2.25-5.16,5.44-6.7,9a31.38,31.38,0,0,0-2.71,7.13,55.38,55.38,0,0,0-1.89,9c-2.31,7-.6,14,.07,21a36.49,36.49,0,0,0,.56,7.3C705.92,254.1,706.54,256.65,703.27,257.26Z"/><path class="cls-6" d="M723.78,94.08c1.66-8.67,7.41-15.23,11.67-22.54a181.7,181.7,0,0,1,10.13-15.6c3-4.19,4.69-2.53,5,1.82-.19,2.52-.25,5-1.37,7.43C743,78.61,742,92.38,747.42,106.27c3,7.71,1.76,14.17-3.38,20.64a63.4,63.4,0,0,0-13.52,35.67c-.07,1.73-.73,3-2.51,3.51-6.74-.73-8.81-3.21-8.39-10.56,1-18,1.42-36,4-53.86C724,99.15,724.44,96.62,723.78,94.08Z"/><path class="cls-7" d="M782.52,380.07c-1.92-.39-4.23,1.05-5.76-1.21-.51-2.12,1.09-2.42,2.48-2.92,2.21-.4,4.3.22,6.4.72,9.81,1.57,19.08-1.66,27.65-5.12,18.78-7.58,37.87-14.46,54.45-27.06,19.84-15.08,33.65-34.83,47-55.16,1.53-2.31,2.66-4.89,4.73-6.82,5.41.35,6.36-5.29,9.92-7.43,5.79.6,7.41-5,11-7.54a11.15,11.15,0,0,1,5.16-3.12c2.34-.18,5-.54,5.68,2.46.58,2.75-1.81,4.12-3.87,5.15A34.71,34.71,0,0,0,934,283.85c-3.1,4.1-5.87,8.42-8.64,12.74-1.5,2-3.28,3.75-3.95,6.25-1.67,4.52-5.38,8-6.16,13-.6,3.83-4.53,1-6.14,2.91-13.83,17.4-30,32.28-49.59,42.77-18.83,10.09-38.91,17-60.5,18.55A39.36,39.36,0,0,1,782.52,380.07Z"/><path class="cls-8" d="M929.81,275.3a34.55,34.55,0,0,0-2.48,4.69c-1.37,4-3.6,4.92-7.1,2.49-2.3-2.81-.93-5.78-.13-8.56,1.9-6.64,3.62-13.36,6-19.85a52.17,52.17,0,0,0,3.32-21.68c.17-2.26,0-4.59,1.09-6.7,9.67-8.63,13-21,18.42-32.06,4.64-9.58,8.86-19.29,16.13-27.27,1.35-1.48,2.47-4.05,4.86-2.66,2.08,1.21,1.68,4.07.6,5.59-1.85,2.59-.71,6-3,8.32C964.77,196.8,957,214.5,951.24,232.8c-2.36,7.52-6,14.45-9,21.66a3.54,3.54,0,0,1-1.4,2.39c-4.43,1.44-5.66,5.14-6.41,9.17a20.53,20.53,0,0,1-.69,2.78C932.73,271.14,932.48,274,929.81,275.3Z"/><path class="cls-9" d="M757.54,60.39c18.67-17.19,41.78-24.63,65.78-30.16,3.57-.82,7.07-1.91,10.6-2.88.56,2.24-1.09,3.44-2.35,4.7C817,46.58,802.11,60.78,787.45,75.21c-3.58,3.53-7.76,4.26-11.88,1-6.07-4.86-14.59-6.42-18.66-13.94A2.12,2.12,0,0,1,757.54,60.39Z"/><path class="cls-10" d="M913.12,57.81c.31-2.27.08-5.5,2.48-6,3-.61,3.73,2.86,4.77,5,4.36,9.08,9.43,17.83,12.66,27.43-.5,5,1.23,9.61,2.48,14.28a67.08,67.08,0,0,1,2.2,17.18c0,19.81-8.07,28.59-28.93,31.53a9.15,9.15,0,0,1-2.09-.28c-4.49-1.14-8.61-4-13.59-2.94-2.55,0-5-.7-7.55-.88a112.46,112.46,0,0,0-30.11-3.74c-14.08-.06-27.35-3.78-40.71-7.38-2.38-1.61-6.45-1.59-5.87-6.07,1.91-1.41,4-.92,6-.37,21.78,5.91,44.15,8,66.49,10.17,6,.59,8.93-4.19,12.12-7.83,4.47-5.1,6.39-11.8,9.64-17.68,4.83-8.66,7.89-18.11,11.75-27.19,3.22-7.58,2.43-15.73-.78-23.46A6.27,6.27,0,0,1,913.12,57.81Z"/><path class="cls-11" d="M852.09,24.39a57.63,57.63,0,0,1,.07,15.3,7.35,7.35,0,0,1-.67,1.76c-1.9,8.87-8.73,13-16,16.8-3.54,1.88-7.95,2.78-9.4,7.38-2.6,3.91-7.47,4.44-10.78,7.28-3.68,3.17-7.36,6.36-9.7,10.74-2,3.53-3,7.4-4,11.26-1.67,6.66,1.35,11.16,6.64,14.65a49.57,49.57,0,0,0,19.07,8,102.72,102.72,0,0,1,24.39,7.67c9.23,4,19.12,5.21,29.19,4.5,2.49-.17,5-1.25,7.39.48-.1,5.21-4,5.72-7.69,5.72-24.1,0-47.15-5.21-69.38-14.3a34.6,34.6,0,0,1-11.21-8c-4,6.29-5.75,6.91-12.37,4.09a29.15,29.15,0,0,1-7.35-3.85c-6.73-6.26-15.21-9.22-23.47-12.68-8.67-3.63-11.64-9.3-9.8-17.84,1.4-1.24,2.63-.41,3.64.51,9.45,8.59,21.66,13.08,31.26,21.58,5,4.42,7.16,3,8.41-4,2.84-15.87,8.77-29.77,23.74-38,6.26-2.93,12.06-6.7,18.22-9.85,7.38-3.76,11.34-10.6,12.31-19,.3-2.53.21-5.15,1.59-7.38S848.81,22.5,852.09,24.39Z"/><path class="cls-12" d="M931.48,225.36c-.07,2.33-.13,4.66-.2,7-3.67-1-3.21-4.11-3.25-6.71-.08-5.53,0-11.07,0-16.59,1.18-7.68.8-15.53,2.31-23.17,2.69-.32,2.69-.32,2.65,3.07a39.29,39.29,0,0,0-2-23.67c-2.77-6.2-1.45-10.87,1.95-16.69,7.87-13.42,16.36-26.89,16.24-43.45,0-2-.17-4.56,2.3-5.27,1.87-.53,2.2,2,3.54,2.8s1.52,2.43,1.75,3.88c.2,8.85,3,17.32,3.67,26.15.59,7.47,1.08,14.81-.49,22.17-3.58,16.84-7.93,33.45-15.54,49-1.73,3.53-3.4,7.22-6.76,9.57s-5.52,1.91-5.56-1.3C932.31,215.64,935.05,220.61,931.48,225.36Z"/><path class="cls-13" d="M850.62,39.74l1.54-.05c9.65.06,18.27-3.31,26.54-7.92,3.62-2,7.28-4,10.92-6s6.71-1.48,9.52,1.44c5.18,10.5,6.09,22,8,33.32.32,1.89-.66,4.31,1.83,5.49.47.51,1.1,1.07,1,1.75-2.61,18.35-2.71,37.29-12.12,54.06-1.77,3.15-2.58,7.74-7.72,7.68-2.3-2.7.3-4.71,1.12-6.84,4.19-10.77,8.63-21.44,9.35-33.21.34-5.51-.67-9.86-6.39-12.43-6-2.68-7-8.11-6.21-14.07.61-4.58,2.3-8.95,2.46-13.62.26-7.77-.41-8.36-8-6.53-8.16,0-15.6,3.87-23.67,4.4C852.1,47.67,851.2,46.93,850.62,39.74Z"/><path class="cls-14" d="M889.62,129c7.37-3,9-10.36,10.85-16.55,3.42-11.42,6.83-23.12,5.72-35.29-.39-4.31,3.73-7,2.82-11.15,1-2.91.6-6.56,4.11-8.23l1.53.07c2.54,5.21.61,10.47-.2,15.57a221.76,221.76,0,0,1-9.54,37.42c-4.84,9.08-8,19.19-17.27,25.41-1.8,1.22-2.77,2.19-5.24,1.81-18.43-2.84-37.17-3.46-55.41-7.71-6-1.41-12.12-2.75-18.18-4.11-4.64,2.13-8-2-12.28-2.58a252.73,252.73,0,0,0-38.2-1.28c-1.15-.17-2.68-.32-3.1-1.26-3.12-6.88-7.84-13-9.49-20.58-.31-1.43-.52-2.82.75-3.76a2.89,2.89,0,0,1,3.83.39c8.58,8.42,21.32,8.31,30.7,15.08,2,1,4,2,6.09,3,9,4.25,9.91,3.74,11.21-7,6.88,10.51,17.63,13,27.93,16.71,17,6.21,34.24,10.13,52.39,9.63,3.83-.11,7.39-.52,9.58-4.21A1.64,1.64,0,0,1,889.62,129Z"/><path class="cls-15" d="M814.43,64.85C800.49,73.3,794.28,86.44,792.16,102c-1.26,9.2-3.67,10.58-11.27,5-8.55-6.28-16.59-13.24-26.62-17.19-3.25-1.28-3.57-5.4-6.65-6.84-2.2-5-.68-9.19,3.1-12.78,7.31,8.51,18,12.53,26.26,19.76,4.07,3.55,7,3.12,9.21-1.66C793.43,72.57,806.54,62,819,51a39.88,39.88,0,0,0,8.59-10.82c3.39-6.15,7.28-11.83,13.26-15.78,1.64-1.37,3.15-3,5.52-3,.47.53,1,1.27.77,1.83-4.29,9.13-6.82,19.07-12.37,27.63-2.28,3.51-6.55,4.12-9.64,6.46C821.68,60,817.83,62.09,814.43,64.85Z"/><path class="cls-16" d="M840.88,24.43C830,39.79,819.48,55.34,804,66.8c-7.1,5.27-11.45,13.21-15.62,21-4.69,8.72-5.57,8.76-13.14,2.84A179.89,179.89,0,0,0,757.9,79.16a11.91,11.91,0,0,1-6.13-8.74c-.73-4.52,1.86-6.82,5.58-8.36,5.81,5.8,13.72,8.48,20.08,13.47,3.23,2.54,6.15,1.3,8.64-1.17C797.55,63,808.92,51.47,820.41,40.09c4.4-4.35,9-8.5,13.51-12.74C836,25.8,838.18,24.5,840.88,24.43Z"/><path class="cls-17" d="M931.48,225.36V208.6c2.57.87,0,4.57,2.72,4.81,2.32.21,3.6-2,4.7-3.62,7.07-10.49,10.6-22.44,13.93-34.46C956,164,960,152.79,959.12,140.84c-.62-8.69-1.32-17.42-3.42-25.95-.71-2.87-1.76-5.87,1-8.34C961.86,117.24,963.87,129,968,140c4.36,11.66,4.15,22.92,2.28,34.63-.26,1.59-.22,3.43-2.7,3-1.89-4.63,3.87-8.23,2.12-13.39-8.68,8.06-13.94,17.7-18.11,27.88-4,9.91-9.42,19.13-13.81,28.84C936.48,223.74,934.79,225.62,931.48,225.36Z"/><path class="cls-18" d="M757.35,62.06l-5.58,8.36c-3.37,3.52-3.34,8.17-4.15,12.54.17,10.78,1.9,13.1,12.11,17.34,7.55,3.14,15.4,5.83,21.29,12-11.34-4.57-24.38-5.24-34-16.2-.39,4.75,1.07,7.55,2.51,10.27,2.57,4.84,5.3,9.58,8,14.37-2.06,5.31-7.35,7.79-10.57,12.08-6.39,7.34-9.84,16.37-14.26,24.85-.75,1.82-1.3,3.77-3.19,4.84a3.22,3.22,0,0,1-1.22-3.72c3.42-12.28,6.49-24.79,15.29-34.59,4.28-4.77,5-9.66,2.67-15.36-7.28-17.76-4.61-34.68,4.38-51.06.87,1.54,1,4.59,3.85,1.43,1.52-1.71,2.23.3,3.08,1.2C757.47,61,757.41,61.5,757.35,62.06Z"/><path class="cls-19" d="M779.64,377.3a3.05,3.05,0,0,0-2.88,1.56c-16.74-5.05-27.88-17.16-38.29-30.3-17.86-22.53-28.06-47.83-28.34-76.86,0-2-1-4-1.47-5.94l7.17,5.29c-1.34,16.08,3.89,30.61,10.72,44.68a179.14,179.14,0,0,0,37.62,51.32c2.92,2.8,6.42,4.43,10.06,6C776.34,373.93,779.57,373.71,779.64,377.3Z"/><path class="cls-20" d="M907.7,145.76c20.54-3.27,26.4-9,27.95-26.52.88-9.89-1.82-19.08-4-28.47-.42-1.8-3.9-5.44,1.36-6.49,3,4.85,7.27,8.79,9.44,14.18,1.7,2.15,3.13,2.88,3.52-.77.14-1.33-.07-2.69.56-4,0-2,.73-3.07,2.91-2.13,3.69,18.47-3.82,34.12-12.4,49.52-7.17,4.67-14.45,9.11-23.55,7.86C911.25,148.67,908.14,149.52,907.7,145.76Z"/><path class="cls-21" d="M723.78,94.08c.77.41,2.25,1,2.19,1.21-1.86,6.87,1.19,14.34-2.55,21-1.2,2.12-.83,4.5-.84,6.79-.08,11,.22,22-1.34,33.05-.71,5.07,1.4,8.73,7,9.43.19,7.52-1.31,14.55-6,20.66-1.6,1.31-1.15,5.34-4.15,4.29-2.25-.79-.39-4.09-1.4-6.05.61-27,1.86-53.94,4.59-80.8C721.63,100.49,721.76,96.94,723.78,94.08Z"/><path class="cls-17" d="M936.93,140.2c3.71-8.83,7.3-17.71,11.19-26.45,1.49-3.36,2-6.83.94-10-1.45-4.24-.85-8.1.4-12.09,3,3.09,4.47,7,5.52,11.06-2.14,1.7-2.07-2-3.84-1.48.73,19.63-8.62,35.64-18.77,51.32-1.89,2.92-2.48,5.44-1,9,5,11.57,5.47,19.78,2.31,29.16-1.8-1.7,0-4.74-2.39-5.8-4.64-3.81-2-10.68-6.21-14.68a40.37,40.37,0,0,1-2-5.65,10.23,10.23,0,0,1-.57-4.75,26.67,26.67,0,0,0,2.25-6C928.78,149.15,931.56,143.51,936.93,140.2Z"/><path class="cls-22" d="M950.65,282.33a93,93,0,0,1-15,25.35c-3.88,2.39-6.59,6.41-11.07,8-3,1.08-6.43,3.23-8.79-.16-2.13-3.06,1.12-5.58,2.74-7.88a42.77,42.77,0,0,1,6.28-6.42A73.65,73.65,0,0,0,938.58,284a34.08,34.08,0,0,1,2.68-4c1.73-2.2,3.51-4.56,6.77-3.9C951.81,276.79,949.48,280.34,950.65,282.33Z"/><path class="cls-23" d="M950.65,282.33c-2.11-1.11,0-5.26-3.48-5.16-2.61.07-3.76,2.38-4.93,4.41a97.62,97.62,0,0,1-22.7,26.87c-1.69,1.39-4.63,3.81-2.74,6.4s4.55,0,6.92-.55c4.66-1.08,6.91-6.36,11.94-6.62-2.32,2.48-4,5.37-6.75,7.67-4.61,3.89-9,6.21-15,3.48-1.34-.6-3.18-.08-4.79-.07,6.63-3.63,6.45-11.84,11.2-16.72,5.83-5.33,10.14-11.78,13.91-18.66,2.83-5.17,6.76-9.21,12.45-11.27,2.84-1,5.4-1.32,7,2C954.54,277.54,950.82,279.28,950.65,282.33Z"/><path class="cls-13" d="M814.43,64.85c2.9-4.37,7.32-7.13,11.68-9.42,5.95-3.13,9.31-7.88,11.75-13.75,2.8-6.76,5.69-13.49,8.54-20.24,3.88-2.85,6.12-2.54,5.69,2.95-5.12.9-5.32,4.89-5.65,8.89-.91,11.26-6.1,19.38-17,23.48C824.11,58.77,820,63.22,814.43,64.85Z"/><path class="cls-24" d="M932.57,268.21l.46-2.45c1.94-3.89,3.59-8,8.1-9.75l1.12-1.55c3.86,1.12,9.46-2.07,11.14,4.49-.45,5.06-4.61,5.48-8.21,6.62l-4.08,2.92a29.08,29.08,0,0,0-3.68,3c-1.14,1-2.27,2.56-4,1.56C931.35,271.84,932.07,270,932.57,268.21Z"/><path class="cls-25" d="M945.18,265.57c2.7-2.25,6.45-3.19,8.21-6.62,1.72,5,2.86,10.05.28,15.15-6.87-3.19-11.53.51-15.18,5.52s-6.5,11.06-10.26,16.22c-1.92,2.62-4,5.72-7.89,6.2-.11-2.9,1.83-4.35,4-5.66a86.17,86.17,0,0,0,8.44-12.56c2.57-6.3,7.59-10,13.42-13,1.67-.84,4.65-1.21,3.9-3.93C949.46,264.75,946.82,266.14,945.18,265.57Z"/><path class="cls-26" d="M703.27,257.26c2.91-4.19-1.64-8.23-.26-12.39,5.33,2.28,3.82,8.48,6.92,12,.89,2.71,2.88,4.55,5,6.31a2.29,2.29,0,0,1,.77,2.46c-2.63,1.73-3.89-.47-5.49-1.86-.94-.81-2.25-3.09-2.86.29C705.71,262,703.69,260.1,703.27,257.26Z"/><path class="cls-27" d="M899.14,27.23a23.77,23.77,0,0,0-9.52-1.44C893.46,21.8,897,20.07,899.14,27.23Z"/><path class="cls-19" d="M782.52,380.07h16.53A27.43,27.43,0,0,1,782.52,380.07Z"/><path class="cls-17" d="M946.55,93.74a50.6,50.6,0,0,1,0,5.51c-.15,1.41-1,2.89-2.6,2.61s-1.33-2.09-1.45-3.4C947.67,100.22,944.32,94.56,946.55,93.74Z"/><path class="cls-28" d="M924.27,164a8.73,8.73,0,0,1,1.67,5.22c3.13,4.64,2.82,9.4,1.13,14.54-4,12.23-9.94,23.87-11.36,36.95-.36,3.39-2.45,6.46-4.36,9.35-1.08,1.63-2.19,3.86-4.86,2.11-1.92-1.25-4.83-1.16-5.53-4.08,2-5.71-1.8-8.53-5.68-11.28-2.54-1.81-6.23-2.4-6.79-6.37.09-3.4,1.75-6.24,3.64-8.82,10.62-14.45,15.06-30.8,15.15-48.53,6.31-2.41,9.51,2.81,13.47,5.79C922.3,160,923.31,162.13,924.27,164Z"/><path class="cls-29" d="M930,208.53c.76,7.92-1.3,16,1.3,23.82,1.62,12.91-4.72,24.14-7.55,36.12-1.1,4.68-2.33,9.34-3.5,14-7.72,16.44-18.69,30.83-30.59,44.18a142.82,142.82,0,0,1-60.23,40.16c-10.81,3.8-21.27,8.52-32.53,11.09-4,.91-7.8.58-11.7.74-.31-3.72,2.54-3.95,5-4.35,23-3.75,43.53-13.51,63.23-25.4,16.32-10.47,30.73-22.95,41.4-39.39a18.67,18.67,0,0,0,3.08-6.18c13.36-13,20.4-28.58,19.78-47.48-.13-3.76-1.3-7.22-1.82-10.84,1.9-6.12,3.79-12.25,7-17.84,2.43-4.24,4.16-8.56,4.08-13.59C926.89,211.58,926.49,208.68,930,208.53Z"/><path class="cls-30" d="M841,219.86l7,.1c15.35.73,28,8.33,40.75,15.85,3.39,2,6,5.05,8.5,8.13,2,2.52,4.49,5.44,1.66,8.62-2.62,2.95-5.62.88-8.13-.72-4.49-2.86-9.31-5.14-13.74-8.1-8.3-5.54-17.85-7.5-27.41-9.25-3.21-.58-6.44-.09-9,3.29,4.08,2.19,8.2.7,12.1,1,4.14.29,8.39-.4,12.39,1,3.17,1.1,7,1.86,6.53,6.66-3.15,1.64-6.2,0-9.29-.29-9.24-1.76-18-1.53-24.72,6.38a11.38,11.38,0,0,1-5.2,5.76c-4,.37-6.33,3.09-8.38,6.16-3.18-13.1-2.94-25.78,4.53-37.6a1.67,1.67,0,0,1,1.31-.08C839.92,231,841.14,230.29,841,219.86Z"/><path class="cls-31" d="M871.57,245.91c-2.94-4.36-7.45-5.24-12.19-5.25-5.55,0-11.1.17-16.65.45-2.31.12-4.43-.39-5.25-2.46-1.12-2.83,1.72-3.31,3.4-4.29,8.65-5,16.69.12,24.65,2.11,9.91,2.48,18,9.15,26.73,14.31,1.84,1.08,4,3.53,6,.92,1.85-2.34-.38-4.4-1.75-6.1-6.88-8.56-16.24-13.53-26.13-17.6-7.35-3-14.11-7.71-22.42-8.05,18.83-.46,36.14,5.25,52,14.56,12.36,7.24,15.74,21.71,10.48,36.84-4.07-1-7.55-2.92-9.82-6.62-2-3.3-4.16-2.72-6.38-.22-1.42.62-2.51,0-3.49-1a5,5,0,0,1-.71-1.77c-1.3-5.23-5.18-8-9.7-10.16C877.34,249.93,873.53,249.34,871.57,245.91Z"/><path class="cls-32" d="M889.58,211.44c4.8,3,9.91,5.41,13.24,10.47,2.22,3.39,1.14,4.84-1.86,6.17a4.27,4.27,0,0,1-5.79-1.34c-2.78-3.63-7.32-4.11-11.07-6-.53-.27,1.12,1.27-.07,1.85-6.21,2.23-11.25-2.25-17-3-28.71-3.73-56.69-11.1-84.8-17.78a27.35,27.35,0,0,1-7.72-2.88,72.76,72.76,0,0,0-25.61-9.71c-2.33-.38-4.64-.61-5.53-3.32,2.44-4.78,6.76-2.39,10.37-2.75,4.63,1,9,2.86,13.5,4.24,8.44,3.86,16.68,8.19,25.37,11.53,3.46,1.68,7.23,2.13,10.94,2.85,7.51,1.92,15,4,22.61,5.37,4.32.62,8.71,4.3,12.92-.31a9.9,9.9,0,0,1,5.33-1.57c5.18-.13,10.36,0,15.54-.12a30.32,30.32,0,0,1,7.18.56c5.12,1.43,10.57.78,15.66,2.54C885.19,209.08,887.75,209.44,889.58,211.44Z"/><path class="cls-33" d="M729.48,193.37l2.78,0c1.54,3.87-.39,7.65-.38,11.81,9.79-3.28,19.44-6.47,29.58-7.72a20.57,20.57,0,0,1,11.4,3.84c-.57,5.74,5.66,15.47,11.09,17.81,2.09.9,3.4-1.28,5.24-.74a39.57,39.57,0,0,1-6.6,26.4c-3-1.75-4.35-4.51-5.1-7.71.12-3.16-2.06-4.77-4.3-6.33-1.56-1-3-2.28-4.52-3.34-4.65-3-9.48-5.54-14.91-6.78-4.22-1.55-8.88-1.3-13-3.23-.45-4.11,2.87-3.42,5-3.58a42.74,42.74,0,0,1,23.4,5.11c2.18,1.15,4,3.19,7.45,2.79-1-3.7-3.72-5.24-6.7-6.2-8.74-2.83-17.75-3-26.76-1.87-1.49.19-4.89-.35-3.57,3.39-2,4.17-6.7,3.6-9.86,5.74-4-.56-5.93,1.46-6.63,5.2a34.87,34.87,0,0,1-5.66,14c-1.66,2.32-3.58,5.44-7.05,1.94a16.53,16.53,0,0,1,0-10.78c4.38-.82,6.13-3.68,7.42-7.86,2.75-8.91,2.63-18.38,6.06-27.16C725.05,195.11,726.48,193.67,729.48,193.37Z"/><path class="cls-34" d="M817.43,240.9a101,101,0,0,0,1.33,26c-.49,7.49,3.67,13.14,7.68,18.72,5.84,8.11,13,15,20.5,21.58,1.85,1.63,4.4,2.82,3.9,6A3.43,3.43,0,0,1,848,314c-6.25-2.4-9.9-8.15-15.13-11.86-3-4.11-6.85-7.55-9.9-11.64-.67-.9-1.59-1.86-2.87-1.2-.9.46-.93,1.54-1,2.47-.21,3,.12,6-.37,9-1.32,8-8,12.11-15.57,9.73a2.78,2.78,0,0,1,1.81-3.36c10.58-4.17,9.85-12.66,8.35-21.48-.81-1.76-.52-4.27-3.23-4.72-1.76,1.22-1,2.94-1,4.45-.07,9.14-6.48,14.89-15.58,13.91-7-.75-11.75-4.89-15.25-10.67-1.87-3.1-1.83-6.72.66-9,4.62-4.25,5.82-8.58,2.45-14a4.45,4.45,0,0,1,1.06-2.53c8.39-7.74,12-18,14.75-28.61,2.35-3.92,6-5.64,10.37-5.75C814.66,228.58,818.13,232.9,817.43,240.9Z"/><path class="cls-35" d="M842.21,292.25C835.52,287,830,280.74,827,272.59c-1.43-8,.32-9.7,10.13-10.12a17.14,17.14,0,0,1,2.26.14c7.67,2.39,15,6.76,23.53,4.55,3.59-.57,6.4,2.46,9.93,2.18,2.4.32,4.93-1.27,7.23.49-1.28,8.75-5,16.22-11.92,21.8C859.74,298.38,851,296.25,842.21,292.25Z"/><path class="cls-36" d="M718.6,272.5,734,276.69c-2.42,3.1-4.68,6.38-8.58,7.83-3.43,1.27-3.36,3.59-2.62,6.71,2.24,9.4,6.89,17.75,11.51,26,8.71,15.56,18.17,30.63,31.28,43.09,10,9.47,21.21,11.37,33.94,7.29,14.83-4.74,29.18-10.51,42.07-19.41,8.75-6,18.23-11,26.16-18.26,2.82-2.59,4.79-4.48,3-8.7-1.69-3.93.39-6.67,4.32-7.86-1,.24.4-1,.55-.1s1.25.44.41.09c-1.37-.57-2.94.22-4.33-.5-.94-.44-1.68-1-1.55-2.22,6.05-.16,12.14.13,18-1.71,2.9,2.7,3.27,4.09.62,7.38-8.66,10.74-17.57,21.26-29.59,28.51-4.33,2.62-8.43,5.57-12.58,8.47-15.93,9.67-33.19,16.3-51,21.24-12.68,3.51-24,.36-33.63-9.23-19.39-19.28-33.32-42-43.07-67.38-2.85-7.41-3.22-15.27-2.79-23.14C716.21,273.41,716.54,271.92,718.6,272.5Z"/><path class="cls-37" d="M754.56,184.73c-3.72.51-7.69-1.38-11.18,1.19l-5.29,1.88a9.51,9.51,0,0,1-5.85.12c-2.86-3.72-1-7.27,1-10.25,4.69-6.92,6.84-14.29,7.35-22.7.49-8,2.65-16,5.41-23.62,3.14-4.3,7.22-7.58,11.5-10.63a188,188,0,0,1,37.78,1c5,.67,8.92,3.36,13.52,4.52.9,2.83,4.39,2,5.78,4.06a4.26,4.26,0,0,1-2.86,1.56c-5.07.36-9.12-2.39-13.4-4.43-5-2.84-10.66-1.65-16-2.71-.68-.13-1.34-.44-2-.53-16.06-2.07-20.71,1-24.94,16.52-2.08,7.63-3.66,15.24-2.06,23.34C754.71,170.83,752.56,177.92,754.56,184.73Z"/><path class="cls-38" d="M781.3,246.3c-6.93,13.8-18.41,21.19-33.3,23.79-2,.84-4.1.59-6.12.45-7.81-.55-12.24-8.12-8.31-15,3.61-6.29,8.63-11.34,16.4-12.44a13.64,13.64,0,0,1,3.43.41c5.1,1.24,10.21,2.37,15.52,2.11C773,246.27,777.35,242.87,781.3,246.3Z"/><path class="cls-39" d="M870.16,310.65l1.37,1.13c.82,1.77,4.58-.89,4.16,2.76-4,1.62-5.65,4-2.58,7.94,2.18,2.79.61,4.88-1.48,6.54-24.78,19.67-50.8,37-82.78,42.52-9,1.55-16.12-3.09-22.65-8.44-12.34-10.12-20.53-23.6-28.71-37-6.88-11.25-13.42-22.75-16.68-35.75-.46-1.79-1.83-4.4.06-5,5.27-1.72,7.72-7.44,13.16-8.66a1.47,1.47,0,0,1,1.05.15c2.9,5.84,2.45,6.69-5,9.42a18.84,18.84,0,0,1-1.94.59c-4.82.79-3.76,4.05-2.5,6.81,6.94,15.15,13.4,30.59,24.2,43.58,6.19,7.44,11.74,15.33,19.58,21.43,7.28,5.66,14.93,8.4,23.84,6.66a126.2,126.2,0,0,0,49.45-20.84c7.54-5.34,15.55-10.05,22.6-16.09,3.42-2.94,4.39-5.59-1.22-7a5.87,5.87,0,0,1-1.77-1.23c-2.12-3.76-4-7.5.7-10.8Z"/><path class="cls-40" d="M930,208.53c-.39.54-1.18,1.15-1.11,1.63,1.77,12.07-7.79,20.56-9.87,31.4a5.22,5.22,0,0,1-3.15,3.45c-2.27-4.91-6.18-8.62-9.36-12.85,5.31-2.42,7.2-8.11,7.57-12.42,1.11-12.83,7.26-23.85,11-35.7,1.57-5,2.57-9.75.93-14.83,5.31,4,3.35,10.49,5.39,15.61C931.27,192.74,931.36,200.68,930,208.53Z"/><path class="cls-41" d="M718.6,272.5c-2.65,13.07.63,25,6.55,36.62,9.59,18.71,20.26,36.53,34.68,52.17,13.45,14.61,28.38,16.17,45.72,9.33,13.93-5.49,27.91-10.82,40.89-18.42,2.77-1,4.71-4.47,8.37-2.78-7,6.62-15.79,10.49-24.4,14-10.86,4.4-21.65,9.21-33.12,12.13-4,1-9.14-1.87-12.11,3.13a9.94,9.94,0,0,0-5.54-1.35c-29.83-12.93-43.55-39.78-57.15-66.66a81.79,81.79,0,0,1-8.74-33.89c-.1-2.58-.55-4.47,2.08-5.7Z"/><path class="cls-42" d="M893.8,264.35c3.06-7.06,3.74-7.47,7.55-1.1,2.41,4,7.44,4,9.18,8.1A48.17,48.17,0,0,1,891,301.91c-3.3,2.15-6.14,5.77-10.85,3.4-1.54-3.72,1.61-5.39,3.46-7.44C892.26,288.28,897,277.56,893.8,264.35Z"/><path class="cls-43" d="M842.21,292.25c3.8-.63,7.31.86,10.91,1.55,8.24,1.59,17.47-3.56,21.16-12,1.75-4,2.82-8.33,5.61-11.84,2.26-2.84,5.05-4.06,8.64-2.83,1,15.32-10.68,32.74-25.25,37.63a21.42,21.42,0,0,1-9.94-3.89C849.22,298.53,844.29,297.24,842.21,292.25Z"/><path class="cls-44" d="M711.4,232.25l0,12.53c1.19,1.11,1.5,2.68,1.8,4.86,4.45-7.09,8.34-13.48,10-21,.72-3.28,2.43-6.09,6.65-5.46,3.06,1.45,3.37,4.29,3.65,7.15-1.66,6-3.89,11.77-8.19,16.41-4.73,5.09-5.81,12.48-11.06,17.2a9.3,9.3,0,0,1-5.3-5.36c-1.32-7.33-.09-15-5.19-21.79-3-3.92,1.09-9.48-.58-14.23.84-2.84,1.69-5.68,2.53-8.52C712.9,217.69,715,224.33,711.4,232.25Z"/><path class="cls-45" d="M750.4,244.79c-7.37,1.21-12.16,6.07-15.61,12.1-2.95,5.15,1,11.9,7,12.9a50.52,50.52,0,0,0,6.16.29c-9.83,3-19.21,1.3-28.37-2.74,2.48-11.78,8.54-21.48,17.25-29.62,1.43-.15,3.1.26,3.84-1.6,1.44-.16,2.07.85,2.69,1.86a6.45,6.45,0,0,0,3.7,3.27C748.44,242.21,750.89,242.13,750.4,244.79Z"/><path class="cls-46" d="M729.51,285.25c3.46-1.73,8-2.72,5.57-8.4,14.47.43,27.16-4.69,39-12.51,2.94.53,1.35,2.31.63,3.25-1.8,2.37-.14,3.77,1.09,5.39-.15,2-1.67,2.91-3,4-7.41,5.35-16.3,6.26-24.81,8.37C741.84,284.75,735.64,289.55,729.51,285.25Z"/><path class="cls-47" d="M863.05,309.34c-2.56,3.62-.64,7.19.11,10.77-1.65.91-3.1.06-4.59-.5-2.91-1.82-6.8-2.45-7.93-6.47-8.63-8.45-18.55-15.8-25.09-26.09-3.78-5.94-10.68-11.36-6.79-20.11,4.85,13.69,12.91,24.91,24.87,33.32C849.61,304.46,856.25,307,863.05,309.34Z"/><path class="cls-48" d="M711.4,232.25c.8-6.92-.83-13.08-5.65-18.24a11.07,11.07,0,0,1,2.66-7.08c3.91,1.85,5.1,5.66,6.62,9.24-.83,3.07-.86,6.25-1.29,9.36,2.23-9.82,1.49-20.22,6-29.61a13.75,13.75,0,0,1,9.78-2.55c-5.22,4-6,10.28-6.73,16a108.09,108.09,0,0,1-5.48,22.57c-.54,1.5-.62,3.49-2.42,3.86C712.25,236.32,713.21,232.81,711.4,232.25Z"/><path class="cls-49" d="M775.42,272.68c-4.13-.1-6.92-.79-2.53-5.16.78-.77,2.72-1.42,1.19-3.18,7.81-8.15,14.32-17.16,18.29-27.85a5.16,5.16,0,0,1,4.68-1.88l.75.47c-.57,12.51-6.95,22.1-15.37,30.65-1.33,2.07-2.41,4.34-4.49,5.84A4.18,4.18,0,0,1,775.42,272.68Z"/><path class="cls-25" d="M854.81,349.42l-8.37,2.78c5.94-6.5,14.29-9.65,21-15.19,7.85-6.48,13.66-14.67,20.42-22.05,1.35-1.46,3-3.87.33-6,3.06-2.17,6-4.54,9.7-5.61,3.44,6-2.71,9-5,11.95C882.35,328.89,870.29,341.17,854.81,349.42Z"/><path class="cls-50" d="M761.46,197.51c-9.8,5.27-21.26,5.28-32,10.94,1-5.77.84-10.55,2.76-15C742.25,193,751.87,195.11,761.46,197.51Z"/><path class="cls-51" d="M737.9,237.8c-8.09,8.61-12.9,19.26-18.28,29.54l-3.94-1.66-1.39-1.77a71.09,71.09,0,0,1,11.34-20.35c2.9-3.73,4.5-8.45,6.68-12.73C736.68,231.13,737.86,234,737.9,237.8Z"/><path class="cls-52" d="M801.81,215.44c-2.71-.19-5.82,3.71-7.94,0-1.24-2.18-4.24-4.85-2.5-7.38,1.54-2.25,4.67-.47,7.07.1,11.14,2.63,22.27,5.28,34.55,8.2l-7.55,7.22c-3.62,2.31-5.38-.94-7.43-2.69C813.3,216.84,808.25,214.14,801.81,215.44Z"/><path class="cls-49" d="M817.43,240.9c.15-4.59-1.5-8.24-6-9.9-5.48-2.05-9.8.42-13.67,4.08l-.13-.09c-1.23-3.55-.89-7.28-1.19-10.94,9-6.41,15.16-5.61,21.22,2.54C821.38,231.54,818.61,236.16,817.43,240.9Z"/><path class="cls-53" d="M789.19,218.42c-1.84,4-3.92,5.27-7.47,1.38a59.65,59.65,0,0,0-9.66-9c-4.64-3.26-1.06-6.44.8-9.49C782.2,203.3,786.5,210.08,789.19,218.42Z"/><path class="cls-54" d="M732.37,187.48l5.72.32c-5.4.75-11.05,3.93-15.81-1.62l6-20.66a3.23,3.23,0,0,0,1.24-3l1.86-5.46c5.36,3.6,3,8.68,2,13.08A101.49,101.49,0,0,0,731,182.34C730.86,184.21,730.76,186.07,732.37,187.48Z"/><path class="cls-55" d="M703.22,222.53c1.42,1.22,1.21,2.88,1.24,4.48.07,4.64.31,8.59,3.64,13,3.8,5,2.67,12.23.89,18.56l-6-13.68C702.09,237.42,701.18,230,703.22,222.53Z"/><path class="cls-56" d="M841,219.86c1.15,3.39,5.44,7.47.6,10.09-4.27,2.31-9.74,2.26-13-3.13C831.16,221.74,836.11,220.85,841,219.86Z"/><path class="cls-57" d="M853.34,300.88c3.53-.2,6.11,3.28,9.78,2.52,5.6.33,11.26-.17,16.75,1.42,4.16.8,7.28-2.39,11.1-2.91-5.65,7.35-16.2,9.34-28,4.58C859.62,305.15,854.88,305.54,853.34,300.88Z"/><path class="cls-58" d="M838.15,264.32c-5.92-.23-11.84-.46-11.14,8.27-2-2.34-2.46-5.27-3-8.17-.61-6.47,3.28-7.56,8.46-7.11C835.62,258.64,838.44,260.22,838.15,264.32Z"/><path class="cls-59" d="M714.09,215.42c-3.43-1.8-3.55-5.82-5.68-8.49,1-4.25,3.72-7.2,7.19-9.6a1.63,1.63,0,0,1,2.2,1.8C717.45,204.75,718.21,210.66,714.09,215.42Z"/><path class="cls-60" d="M714.09,215.42c1.89-5.91,3.55-11.85,1.51-18.09,1-1.55,2.61-1.28,4.1-1.41-.44,11.48-3.94,22.38-6.16,33.53C712.19,224.67,713,220,714.09,215.42Z"/><path class="cls-61" d="M781.3,246.3l-12.7,1.29a1.65,1.65,0,0,1-.53-1.74c1.89-3.17,4.59-5.77,6.15-9.19,1-2.09,2.52-2.81,3.93-.14,1.1,3,4.09,4.93,4.44,8.3Z"/><path class="cls-62" d="M801.81,215.44c7-3.4,12.37,0,17.53,4.32,1.85,1.54,2.87,4.47,6.1,3.82-2.45,3.92-5,3.25-7.6.16C813.65,218.72,808.12,216.31,801.81,215.44Z"/><path class="cls-63" d="M796.48,224.05c3.35,3.32,2.68,7.09,1.2,10.94a9.12,9.12,0,0,1-5.31,1.5C793.84,232.38,792.48,227.33,796.48,224.05Z"/><path class="cls-64" d="M884,222.6l-3.82-3.17c6.63.82,12,1.54,15,7.31Z"/><path class="cls-65" d="M932.57,268.21c.38,2.93.69,6,4.48,2.33a5.74,5.74,0,0,1,4.05-2.05c-2.42,2.63-4.8,5.29-7.26,7.88-1.91,2-3.42,2.07-4-1.07C930.51,272.85,930.88,270.27,932.57,268.21Z"/><path class="cls-66" d="M932.75,283.82a20.56,20.56,0,0,1-8.44,12.56A34.61,34.61,0,0,1,932.75,283.82Z"/><path class="cls-67" d="M941.13,256l-8.1,9.75C934.07,261.12,934.2,255.73,941.13,256Z"/><path class="cls-68" d="M907.25,140.18c-.76-.18-2.8-.52-4.75-1.13-6.7-2.1-6.94-3.26-2.33-8.79,4.12-4.93,7.65-10,9.8-16.38,2.51-7.41,6.91-14,14-18.17,3.91-2.29,6.56-.64,7.14,3.17,1.27,8.37,1.92,16.9-.27,25.23C928.79,132,917.13,140.1,907.25,140.18Z"/><path class="cls-13" d="M904.91,110.87c2.51-12.42,5.1-24.82,7.48-37.27,1-5.19,1.52-10.47,2.26-15.72,4.61,5.8,4.59,12.74,3.41,19.28C915.9,89.17,909.53,99.72,904.91,110.87Z"/><path class="cls-69" d="M936.93,140.2c-3.39,4.89-6.41,10.09-11.14,13.9-1.63,1.67-3.06,3.69-5.85,3.34-4.43-1.8-8.23-4.87-12.85-6.34a5.57,5.57,0,0,1-4-4.34c.6-1.84,1.73-2,3.23-1l1.37,0c8.25,2.94,16,2,23.14-3.11C932.76,141.27,934.43,139.88,936.93,140.2Z"/><path class="cls-70" d="M811.48,130.6l3.11-.27c18.92,5.71,38.41,7.45,58,8.39a60.79,60.79,0,0,1,14.22,2.84,1.34,1.34,0,0,1-.4,2c-3.81,1.58-7.63-.7-11.46,0-7.54.12-14.94-2.05-22.51-1.44a170.75,170.75,0,0,1-27.6-4.67C820.52,135,814.33,136,811.48,130.6Z"/><path class="cls-71" d="M886.83,143c0-.47,0-.93,0-1.4l6.92,1.46c3.94-.27,7,1.52,9.84,4l16.84,9.75c1.15.73,2.44,1.31,2.75,2.85l1.11,4.33c-5-4.48-9.84-9.3-16.57-11.28-7.08.36-11.87-5-18-7.13A6.52,6.52,0,0,1,886.83,143Z"/><path class="cls-20" d="M903.58,147.06c-3.67-.38-6.63-2.52-9.84-4,4.9-2.39,8.57,1,12.59,2.7A2.93,2.93,0,0,0,903.58,147.06Z"/><path class="cls-72" d="M889.62,129l-1.4,1.38A62.89,62.89,0,0,1,846,124.69c-6-3-12.65-4.32-19.23-5.32-8.49-1.3-15.74-5.23-22.39-10.19-4.94-3.68-7.29-8.81-3.91-15,2.58-.25,4.27,1.5,6.16,2.78,8.08,5.43,17.19,7.91,26.67,9.24a14.35,14.35,0,0,0,10.52-2.67c8.19-5.73,16-11.81,21.22-20.67,3.42-5.81,8.18-10.67,12.54-15.76,3.84-4.5,5.42-9,3.07-14.62a13.39,13.39,0,0,1-.74-8.21c.35-1.53,1.55-2.3,2.72-3.1,9.37-3.91,9.62-3.65,9.79,6.64.07,4.73-1.32,9.08-2.36,13.56-2,8.72-.77,11.83,7.49,15.09,5.57,2.2,5.53,7.18,5.23,10.89A95.47,95.47,0,0,1,889.62,129Z"/><path class="cls-73" d="M804.65,82.93c3-6.58,8.25-10.87,14.48-14.17,2.22-1.18,4.31-2.59,6.46-3.9a6,6,0,0,1,1.92-1.33,99.12,99.12,0,0,0,27.66-6.12,20.89,20.89,0,0,1,11.63-1c7.36,1.58,10.66,9.85,5.18,14.84-9,8.25-18,17.33-29.62,21.49s-23.29.49-34.53-3.25C805.28,88.65,803.06,86.41,804.65,82.93Z"/><path class="cls-74" d="M804.65,82.93c3,9.26,11.77,6.27,18.06,8.33,17.6,5.79,29.06-5.66,41.11-15.26,1.26-1,2.5-2,3.84-2.94,3.67-2.5,6.53-5.39,4.76-10.34s-6.12-5-10.39-4.83c-7.49.36-13.94,4.59-21.3,5.79A88.29,88.29,0,0,1,827,64.87c-.26-3.39,2.71-3.31,4.62-4,15-5.64,30.71-9.68,45.11-17.09,1.46-.75,3-1.13,4.53.1.07,1.85-.47,4,.3,5.5,4.38,8.37,1.9,15-4.44,21.08-7.85,7.53-12.08,18-20.37,25.25-1.39,1.22-2.65,2.6-4.13,3.69-16.52,12.16-32.57,10.53-52.11-5.23C800.92,90,801.73,86.09,804.65,82.93Z"/><path class="cls-75" d="M881.26,43.85C864,52.92,844.82,57.19,827,64.86h-1.41c-1.44-3.61,1.64-4.2,3.67-5.33,3.43-1.92,6.94-3.72,10.47-5.46,6-3,9-8.2,10.89-14.33,1,7.67,6.36,6,11.23,5.31,7-1,13.51-4.6,20.82-3.92Z"/><path class="cls-76" d="M956.41,140.88c.76,5.17-.46,11-2.75,16.68-1.36,3.38-2.39,8.31-6.9,7.2-4.71-1.16-8.42-6.14-6.69-10.72,3.16-8.36,4.32-17.59,9.92-25,.94-1.24,1.55-3.07,3.67-2.52s2.72,2.32,2.74,4.3C956.44,133.86,956.41,136.88,956.41,140.88Z"/><path class="cls-77" d="M732.37,187.48c-5.53-4.29-3-9.78-1.57-14.58,1.57-5.39,2.9-10.48.55-15.88,4.53-8.76,7.76-18.27,14.66-25.67.91,5.46-1.42,10.44-2.2,15.65-1.78,12-2.11,24.39-10.44,34.43C732,183.12,732.25,185.38,732.37,187.48Z"/><path class="cls-20" d="M923.17,159.66a4.41,4.41,0,0,1-2.75-2.85c1.83-.82,3-2.87,5.37-2.71C925.51,156.23,926.83,159.13,923.17,159.66Z"/><path class="cls-78" d="M889.61,144.38c6.52,1.7,12,5.6,18.1,8.33,2.16,4.39,1.89,9,.8,13.49-3.21,13.14-6.09,26.42-15.39,37.11a14.64,14.64,0,0,0-3.54,8.13l-22.52-4.18c3.26-5.19,8.3-8.66,12.46-13,11.5-11.91,13.89-26.2,10.49-41.92C889.45,149.75,887.63,147.14,889.61,144.38Z"/><path class="cls-79" d="M871.57,245.91l9.63,4.53c.46,1.2-.26,1.71-1.2,2.1a5.53,5.53,0,0,1-1.86,0c-3.09-.69-6.16-2.89-9.35-.21-4.52.83-9.21,3.7-13.26-1.1A11.1,11.1,0,0,1,856,245c1.94-1.42,4-.94,6.08-.41Z"/><path class="cls-80" d="M862,244.57c-1.91.58-4.22-.47-5.8,1.45-1.36,1.91-3.55,1.75-5.49,2.2a8,8,0,0,0-6.07,5c-2.55,6.58-4.49,3.47-6.59-.14a10.38,10.38,0,0,1-1.33-1.14c-2.23-2,.13-2.84,1.19-3.46C845.44,244.09,853.33,241.78,862,244.57Z"/><path class="cls-81" d="M836.75,252l1.33-.71c2.88,4,4,8.32,1.53,13l-1.46,0-5.67-7Z"/><path class="cls-82" d="M879.87,304.82c-5.79,1.95-11.3.63-16.75-1.42,10.07-4.54,17.5-11.54,20.78-22.42,1.39-4.63,2.87-9.25,4.31-13.88-.69-2.55.81-3.59,2.92-4.2l2.67,1.45c4.09,4.94,3.59,16.32-.85,23.72C889.26,294.2,884.39,299.37,879.87,304.82Z"/><path class="cls-83" d="M891.13,262.9l-2.92,4.2L879.89,270l-7.24,1.24c-.68-2.56,1-4.52,1.68-6.73,2.49-3.6.95-8.91,5-11.87,6.18.06,9.08,4.38,11.7,9.06A2.7,2.7,0,0,0,891.13,262.9Z"/><path class="cls-84" d="M891,261.67a55.19,55.19,0,0,0-11-8.86c-.55-.2-.74-.43-.58-.68s.33-.39.51-.39l1.32-1.3C886.08,252.77,891.42,254.69,891,261.67Z"/><path class="cls-85" d="M811.48,130.6,824.2,136c-1.32,1.87-3.45,2.19-5.41,2.86-9,3.08-13.39,9.81-12,19.26a138.28,138.28,0,0,0,3.61,16.3c1.34,4.95,4.56,7.6,9.73,8.66,14.66,3,27.6-1.17,39.29-9.48,9.8-7,8.85-20.29-1.25-26.9-2.51-1.65-6.45-2.11-6.15-6.5,8-.84,15.73,1.64,23.66,1.47,4.73,1.87,6.74,5.73,8.47,10.29,6,15.82-4.81,43.75-24.5,49.08-11,3-21.35,5.4-32.5,1.47-6.21-2.18-12.67-2.62-18.93.49a6.38,6.38,0,0,1-5.39.16c-3.77-.19-7.51-.56-10.75-2.8-5.26-5.07-7.91-11-7.54-18.56.35-7.23-2.18-14.11-4.38-20.95-4.07-12.64-.49-23.18,9-32,2.83-2.64,6-4.34,10-2.61C803.3,127.52,806.83,130.65,811.48,130.6Z"/><path class="cls-86" d="M799.13,126.21c-13.27,2.32-21.92,17.84-17.52,32.8,2.81,9.56,5.65,19,5,29.05-.33,5,5.91,7.17,5.47,12.28l-25-11.4a5.83,5.83,0,0,1-3.29-4.28c-1.53-13.49-6.35-26.8-2.08-40.59a63.84,63.84,0,0,1,6.17-14.73c3.47-5.66,8-8.19,14.52-5.93C788.08,123.78,794.07,122.24,799.13,126.21Z"/><path class="cls-87" d="M802.83,203.14c10.43-5.94,20.53-2.45,31.54-.89,30.17,4.28,55.16-17.36,48.13-49.6-1-4.62-4.27-7.51-6.82-11,3.86-.82,7.38,1.29,11.15,1.31.92.48,1.85.95,2.78,1.42,2.51,9.08,4.67,17.93,3,27.76-1.91,11.5-7.23,20.63-16.18,27.14-3.4,2.48-3.78,8.47-9.41,8l-6.69-.16a39.55,39.55,0,0,0-16.71.07l-4.48,1.32c-4.17,2.22-8.39.68-12.6.19C818.32,208.33,810.57,205.77,802.83,203.14Z"/><path class="cls-70" d="M782.42,123.41c-8.24-1.78-11.65,4.07-14.54,9.83-5.49,11-8,22.59-4.67,34.78,1.87,6.89.3,14.38,3.89,20.92l-12.54-4.21c-2.61-1.54-4.5-2.71-3.31-6.85a29.17,29.17,0,0,0,.32-13.81c-2.94-13.38,2.38-25,6.74-36.86.57-1.54,1.4-3.09,3.15-3.49C768.41,122.15,775.39,120.6,782.42,123.41Z"/><path class="cls-78" d="M826.58,208.68c4.2.26,8.38-1.25,12.6-.18C835.07,214.8,830.79,209.24,826.58,208.68Z"/><path class="cls-78" d="M843.66,207.17a21.66,21.66,0,0,1,16.71-.07Z"/><path class="cls-88" d="M739.42,217c-1.61-.57-3.73.69-5.37-2,13.56-5.9,26.79-4.62,40,.14,1.39.5,2.38,2.14,3.54,3.26,1.62,1.55,2.81,3.56,1.56,5.55-1.61,2.56-3.89.72-5.43-.29-8.73-5.75-18.15-8.83-28.68-8.14-1.6.1-3.27-.12-4.38,1.44A.86.86,0,0,1,739.42,217Z"/><path class="cls-89" d="M754.54,219.74c6,.34,10.89,3.17,15.34,7,1.74,4.34-1.56,5.66-4.38,5.9-6.08.51-12.39,1.42-18-2.42a3.89,3.89,0,0,1,0-5.05c1.58-2.19,5.69-.14,6.4-3.82,0-.29.1-.57.15-.86Z"/><path class="cls-90" d="M747.56,229.48c5.16,2.17,10.7,1.13,16,1.81,2.7.34,6.1-.45,6.28-4.59l4.14,2.83c-1.29,4.12-3.15,7.75-7.62,9.25-5.88-.84-11.89.2-17.74-1.2a4.19,4.19,0,0,1-1.79-1.46C745.86,233.78,745.68,231.52,747.56,229.48Z"/><path class="cls-91" d="M729.9,223.85c-3.21,0-4.37,2-4.92,4.77-1.88,9.44-7.62,17-12.26,26.06-2.1-3.62-1-6.87-1.29-9.9,7.33-3.3,8.19-10.4,9.73-17s4.05-8.24,8.66-5.44l.32.46A.8.8,0,0,1,729.9,223.85Z"/><path class="cls-92" d="M767.05,237.78c2.71-2.42,3.26-6.67,7-8.25,1.77,2.1,6.77,2.27,4.13,7-3.71-1.69-2.62,2.08-3.52,3.32a23,23,0,0,1-6.13,6.38c-3.64-1.41.36-4.92-1.85-6.73A1.81,1.81,0,0,1,767.05,237.78Z"/><path class="cls-93" d="M739.42,217a2,2,0,0,0,1.24-.06c4.73.41,9.7-.37,13.88,2.8l.05-.06c-3.47,2.9-7.68,1.58-11.57,2-4.5,0-8.76,3.83-13.46.92l.26-.29C731.63,218.07,736.39,219.09,739.42,217Z"/><path class="cls-94" d="M803.31,310.38c10.6-.25,13.76-3.79,14-14.94.07-3.25-2-8.14,1.48-9.44,4.08-1.52,5.65,3.53,7.71,6.37,2.37,3.28,6.75,5,7.42,9.59,2.69,3.78,7,6.06,9.43,10,.85,1.38,1.49,3,.7,4.59-.91,1.89-2.66,1.7-4.2,1.22-11-3.4-20.24,1.33-29.51,6.09a8.76,8.76,0,0,1-2.17.6c-13.1-1.9-25.89-5.48-39-7.45a53.57,53.57,0,0,0-17.85-12.69c-3.32-1.42-5.45-4.24-7.34-7.16-3.66-5.65-2.3-9.47,4.22-12.23.67-.26,1.34-.53,2-.82a80.08,80.08,0,0,0,15.87-4.39c4.69-2,6.41-.14,6.84,4.23a22.11,22.11,0,0,1-.25,5.51c-1.63,10.85.95,14.5,11.74,16.63C790.33,309.35,797.52,306.76,803.31,310.38Z"/><path class="cls-95" d="M807.67,270c-4.52-.11-8.59-1-12.12-4.22s-4.44-6.46-1.64-10.34,3-8.67,5.22-12.71,4.75-8.5,10.35-7.46,6.18,6.14,6.14,10.4c0,6.89-1.52,13.73-1.3,20.71C814.49,271.34,810.26,269.42,807.67,270Z"/><path class="cls-94" d="M810.25,322.93c9.78-7.45,20.42-10.5,32.82-6.06-.05-7.13-8.31-8.77-9.13-14.91,5.77,2.31,9,7.81,13.91,11.19,6.4,4.49,6.67,6.23,1.12,11.75-3.79,3.78-7.56,7.45-10.15,12.25-1.69,3.15-4.64,5.13-8,6.44-3.93,1.55-7.83,2.13-10.58-1.94s-2.1-7.89,1.91-10.95a7.3,7.3,0,0,1,1.91-.8c2-.47,4.12-.22,6.16-.59s4.6-.53,4.36-3.33-2.64-3.72-5.1-3.53a58.84,58.84,0,0,0-12.83,2.44C814.37,325.59,811.27,327.21,810.25,322.93Z"/><path class="cls-96" d="M822.8,331.36c-2.6,3.08-4.09,6.38-1.08,10,3.23,3.84,6.8,1.45,10,0,1.83-.83,4-2.14,4.78-3.82,3-6.52,8.19-11.1,13.26-15.77,4.55-4.21-1.2-5.75-2-8.56h2.79l8.36,5.57c2.5,3.8-.15,6.17-2.6,8.23-3.9,3.28-7.95,6.44-11.18,10.37-9,10.94-20.73,14-34.2,12.49-2.79-.31-5.87-.39-6.73-3.72-.8-3.13,2-4.44,4-5.84a57.73,57.73,0,0,0,7.3-6.38,15.46,15.46,0,0,1,4.28-3.21A2.8,2.8,0,0,1,822.8,331.36Z"/><path class="cls-46" d="M776.83,271.27a14.47,14.47,0,0,1,5.6-5.54c6.21,5.71,3.49,9.54-1.86,14.33-4.36,3.91-1,11.73,6.4,15.55,5,2.55,10.14,3.51,15.74-.05,5.31-3.38,5.48-7.66,4.17-12.6-.69-2.6.1-4.27,2.22-5s3.54.79,4.27,2.62a31.47,31.47,0,0,1,1.12,4.67l-.74.57c-4.12,1.19-2.87,5.13-4,7.85a9.37,9.37,0,0,1-1.07,1.81c-6.58,8.35-15.12,5.44-23.39,4.11-7.67-1.94-9.66-8-10.78-14.78a10.52,10.52,0,0,1-.37-2.09,9,9,0,0,1,.36-3.05c.83-2.15,1.54-4.66,3.35-5.93C782.22,270.64,774.76,273,776.83,271.27Z"/><path class="cls-97" d="M793.28,278.27c5.9.12,11.34,4.86,11.12,10.13-.16,4.07-3.13,5.22-6.76,5.22-6.45,0-15.21-5-14.23-8.66C784.62,280.48,788.17,277.81,793.28,278.27Z"/><path class="cls-98" d="M775.36,282.31l.13,1.68c2.48,16.75,13.72,23.61,30.84,18.81,4.53-2,6.55-5.39,6.34-10.36-.1-2.47-.31-5.11,1.7-7.14l.12-.08c4,11.5,1.79,17.5-8.49,23.13a22.84,22.84,0,0,0-2.69,2c-6.65.11-13.35.59-19.5-2.82-11-5.18-14-11-11.7-22.52C772.47,283.24,773.31,282.06,775.36,282.31Z"/><path class="cls-99" d="M839.61,264.28c-.56-4.34,1-8.92-1.53-13,2.74.82,2.74.82,3.69,5.1a11.91,11.91,0,0,1,7.81-9.82,3.26,3.26,0,0,1,.4,2.7c-.93,2.52-2.11,5-1.74,7.8a8.8,8.8,0,0,0,2.55,5.52c3.12,4.35,8.62,1.57,12.33,4.14a1.34,1.34,0,0,1,0,1.77C854.48,271.6,847.14,267.39,839.61,264.28Z"/><path class="cls-100" d="M863.13,268.48a11.73,11.73,0,0,1,.1-1.32c1-2,3-3.05,4.33-4.78a12.81,12.81,0,0,1,2.59-2.76,4.31,4.31,0,0,1,1.91-.26c3.37.86,3.12,3.77,3.54,6.29-1,1.85-2,3.71-3,5.56C868.75,272.84,866.75,267.82,863.13,268.48Z"/><path class="cls-47" d="M875.69,314.54l-4.16-2.76c3.44.27,7-.67,10.77.87C880.18,315.55,877.73,314.13,875.69,314.54Z"/><path class="cls-101" d="M767.05,239.16c6.16,1.19-.23,5,1.45,7.06,0,.46.06.91.1,1.37a36,36,0,0,1-15.52-2.6c1.49-4.24,5.8-2.54,8.56-4.11C763.4,240.17,764.84,238.41,767.05,239.16Z"/><path class="cls-102" d="M762.88,242c-2.66,3-7,.37-9.8,3l-2.68-.2-4.33-2.61c-2.31-5.57-2.29-5.63,1.48-5.7l.17-.12C752,240.28,758.2,239.1,762.88,242Z"/><path class="cls-103" d="M817.22,334.07c-2.24,4-6,6.27-9.55,8.82-1,.74-2.79,1.21-2.27,3,.44,1.5,1.82,2,3.27,2.06,12.37.67,24.45.88,33.5-10.11a56.15,56.15,0,0,1,13.18-12.15c2.38-1.51,4.06-3.81,3.65-7l4.16,1.4c.46,0,.91,0,1.37,0,4,4,.91,7-2,8.94-7.08,4.61-12.88,10.89-20.24,15.09-16.46,12.29-35.42,12.14-54.57,11a5.87,5.87,0,0,1-2-.38c-19.43-8.93-39.29-17.36-47.93-39.45-2.87-7.34-6.43-14.44-8.33-22.13-1.14-4.61-.41-8.11,5.7-7,3.2,9.6,5.53,19.49,9.69,28.77,2.67,5.94,5.85,11.44,11.72,14.78,2.39-1.82.87-3.67.65-5.28-1.43-10.3,1.49-12.56,11.45-8.73,11.67.6,22.91,3.52,34.2,6.19,2,.47,4,.66,6.05,1a1.3,1.3,0,0,1-.28,2c-3.35,1.9-6.73.91-10.09,0-8.94-2.39-18.1-3.74-27.17-5.47a13.15,13.15,0,0,0-7.5.35c.11,6.14,3.78,9.61,8.87,12,8.86,3.6,17.88,6.45,27.61,5.95a16.82,16.82,0,0,0,10.62-2.52C812.75,334,814.73,332.36,817.22,334.07Z"/><path class="cls-104" d="M842.28,342.45c6.54-4.13,11.63-10.15,18.5-13.93,2.84-1.56,5.61-4.2,3.75-8.38,2.83-.28,5.27.67,6.27,3.32,1.07,2.82-1.7,4.21-3.34,5.48-21.83,16.83-44.27,32.49-72.16,37.84-10.52,2-19.2-.39-27.53-7.4-20.47-17.2-32.41-40.05-43.23-63.66-1.7-3.72-5.72-9.82,3.58-10.46,4.33,19.64,10.64,38.25,26.58,51.95,4.21,3.63,8.15,7.57,12.15,11.43,7.29,7.06,15.66,11.47,26.24,10.16,13.79-1.7,27.3-4.43,40.15-10C836.74,347.29,839.25,344.54,842.28,342.45Z"/><path class="cls-105" d="M842.28,342.45c-2.58,4.93-7.44,7-12.13,8.73-12.27,4.62-24.7,8.49-38,9.54-11.26.89-19.88-3.74-27-11.36-8.66-9.22-19.7-16.39-25.34-28.26-4.08-8.55-7.66-17.34-11.66-25.93-1.59-3.42-1.93-6.6,0-9.91h1.39l19.48-1.4c.36.31.48.62.37.93s-.23.48-.35.48h0c-4.62.58-8.81,5.61-13.91,1.39-7.7-.22-4.5,5-3.49,8,7,20.88,16.15,38.87,37.67,50.49,22.22,12,42.48,9.87,64.19,2.45C836.8,346.47,838.47,342.67,842.28,342.45Z"/><path class="cls-106" d="M729.56,222.65c4.28.15,8-2.1,12.14-2.7,2.2,5.61,1.47,11.05-.94,16.4,0,2.33-1.24,2.29-2.86,1.45-2-2.25-2.76-5.43-5.59-7-.81-2.33-1.61-4.66-2.42-7A6.28,6.28,0,0,0,729.56,222.65Z"/><path class="cls-107" d="M747.55,236.48c-4.67.81,1.37,4.41-1.48,5.7-1.71-.47-3.55-.78-3.77-3.08.48-3.59-.91-7.18-.1-10.72s1.29-7.9,6.67-7.7a3.11,3.11,0,0,1,.45,4.28c-1.9,1-1.8,2.77-1.76,4.52C747.56,231.82,747.55,234.15,747.55,236.48Z"/><path class="cls-108" d="M749.1,221.1c-4.69,1.73-5.24,5.8-5.68,10-.29,2.68.94,5.58-1.12,8l-1.54-2.75c-1.12-5.55.22-11,.94-16.4l12.89-.27c0,.41,0,.83,0,1.25C752.84,222.76,751,222.5,749.1,221.1Z"/><path class="cls-109" d="M749,285.26c0-.47,0-.94,0-1.41,7.85-2.92,16.48-3.6,23.68-8.36,3.18-.11,4,1.36,2.79,4.19,0,.88-.07,1.76-.1,2.64-4.6,6.25-3.13,15,3.38,20.86,1.66,1.5,4.21,2,5.07,4.38-10.57-.78-15.37-6.87-13.25-16.74a47,47,0,0,0,.7-5.42c.41-4.45-.62-6.61-5.76-4.56A59.61,59.61,0,0,1,749,285.26Z"/><path class="cls-34" d="M775.46,279.68a4.24,4.24,0,0,0-2.79-4.19c.92-.94,1.83-1.88,2.75-2.81l1.41-1.41c1.1.46,3.93-.94,2.69,2C778.57,275.6,776.84,277.56,775.46,279.68Z"/><path class="cls-110" d="M852,140.18c1.29,2.87,4.25,3.39,6.63,4.68,10.57,5.68,13.36,20,4.41,27.92-13.37,11.78-29.28,15.79-46.81,11.41-5.81-1.45-7.07-6.88-8.47-11.77-.88-3.09-1.12-6.35-1.86-9.48-3.89-16.41,1.39-24.23,18.28-27Z"/><path class="cls-111" d="M846.58,257.32c-.29-3-.09-5.89,2.28-8.16,2.49.42,5.14,0,7.42,1.5,4.24,2.91,8.38,1.35,12.51-.3,4.29,1.19,2.88,4.07,2,6.8C862.75,259.81,854.68,261.48,846.58,257.32Z"/><path class="cls-112" d="M875.6,265.65c-2-1.44-1.28-4.85-4.18-5.59C870,258.15,871,256,870.9,254c-.11-1.65.66-2.67,2.55-2a16.36,16.36,0,0,0,5.17-.47,6.73,6.73,0,0,1,1.26.27c0,.36.06.71.07,1.07C876.71,256.48,878.83,262,875.6,265.65Z"/><path class="cls-113" d="M878.62,251.47c-2.46,1.36-1.14,4.06-2,6.15-1.67-1.51-1.45-4.59-4.79-4.75-.12,2.42-.25,4.81-.38,7.19q-.6.13-1.23.24a2.07,2.07,0,0,1-.08-2.94c-.29-2.37.94-5-1.32-7C872.49,247,875.37,250.83,878.62,251.47Z"/><path class="cls-114" d="M856.28,250.66c-2.9,1.61-5.39,1.22-7.42-1.5l.72-2.61,6.65-.53C858,247.55,856.89,249.11,856.28,250.66Z"/><path class="cls-115" d="M749.1,221.1l5.53-.17c2.66,1.75,3.48,3.44-.49,4.26-1.52.32-3.21-.13-4.82-.23C749.25,223.67,749.17,222.38,749.1,221.1Z"/><path class="cls-116" d="M762.88,242c-5.84.27-11.72.66-15.16-5.61,6.43.72,13-1.31,19.33,1.42q0,.69,0,1.38Z"/><path class="cls-109" d="M735.09,286.65c4.76.81,9.21-1.6,13.91-1.39-9.67,5.38-5.37,10.86,2.28,17,3.69,3,8.53,4.45,12.52,7.1,2.18,1.45,4.48,3.35,4.78,6.45-12.42.3-12.56.51-8.68,12.21.46,1.39,2.24,3,.23,4.25-1.42.91-3.06.12-4.61-.5-4.91-2-7.77-6.44-9.69-10.48C740.66,310.33,734.93,299.34,735.09,286.65Z"/><path class="cls-96" d="M808.79,324.51c0-.51,0-1,0-1.55l1.42,0c5.89,3.2,10.63-2.92,16.3-2,1.73.27,3.66-.82,5.39-.56,3.41.51,5.23,3.36,5.58,6.31.39,3.25-3,3.91-5.3,4.37-2.66.53-5.51.14-8.27.15-3.3-2.07-7.35-1.65-10.79-3.29C811.46,327.07,809,327.27,808.79,324.51Z"/><path class="cls-117" d="M808.79,324.51c4.29,1.36,8.54,2.81,12.88,4,1.55.43,2.51.9,2.28,2.65a3,3,0,0,0-1.15.19l-2.78,0c-6,1.94-11.8-.37-17.68-.84-12.72-1-24.78-5-36.89-8.63a13.22,13.22,0,0,1-5.26-3.2c5-2.91,10.22-1.24,15.33-.46C786.68,319.9,797.5,323.47,808.79,324.51Z"/><path class="cls-118" d="M760.19,318.65c19.54,6.13,39.56,10,59.83,12.67l-2.8,2.75c-5.63,1.69-9.9,7.47-16.72,5.56-.89-2-2.76-2.14-4.59-2.38-7-.91-14-2-20.67-4.74-1.43-.59-2.68-.15-4,.21C764.26,330.63,762.84,324.16,760.19,318.65Z"/><path class="cls-119" d="M807.39,304.71a28,28,0,0,1-16.9.7c-12.21-3.53-15.29-7.94-15-21.42,2.21,5.33,2.26,12.18,9.68,13.86,11.64,4.37,17.77,3.28,23.71-4.22h0c.92-1.42,2.11-2.94,3.81-1.53s1.4,3.93.45,5.73C811.74,300.48,809,302.16,807.39,304.71Z"/><path class="cls-25" d="M807.39,304.71c.23-3.13,3-4.51,4.59-6.72,1-1.43,1.49-3.05.54-4.53-1.1-1.71-2.42-.1-3.64.17,1.72-2.85-4.15-10.72,5.49-8.34C814.45,292.64,816.23,300.59,807.39,304.71Z"/><path class="cls-25" d="M808.88,293.63c-3.93,8.48-14.12,10.29-23.71,4.22,2,.39,3.94.88,5.93,1.15C797.83,299.92,804.15,299.38,808.88,293.63Z"/><path class="cls-120" d="M870.11,257.36c0,1,.06,2,.08,2.94-.45.9-.91,1.8-1.37,2.7a22.14,22.14,0,0,1-19.57-.08,6.94,6.94,0,0,1-2.67-5.6Z"/><path class="cls-121" d="M849.25,262.92l19.57.08c-1.24,2.23-2.89,3.9-5.6,4.16C858.35,266.45,852.41,269.29,849.25,262.92Z"/><path class="cls-122" d="M771.24,332.72c.44-3.12,2.22-2.92,4.52-2a61.11,61.11,0,0,0,22.18,4.69c3.38.06,4.2,1.26,2.56,4.19A56.08,56.08,0,0,1,771.24,332.72Z"/></g></g></svg>